<?xml version="1.0" encoding="UTF-8" standalone="no"?>
<svg width="32px" height="27px" viewBox="0 0 32 27" version="1.1" xmlns="http://www.w3.org/2000/svg" xmlns:xlink="http://www.w3.org/1999/xlink">
    <!-- Generator: sketchtool 3.8.3 (29802) - http://www.bohemiancoding.com/sketch -->
    <title>ABF7A15A-94DF-4210-B239-193950BBF5B1</title>
    <desc>Created with sketchtool.</desc>
    <defs></defs>
    <g id="PC" stroke="none" stroke-width="1" fill="none" fill-rule="evenodd">
        <g id="线索管理---我的线索---线索详情---交互状态" transform="translate(-1247.000000, -165.000000)">
            <g id="record_add-copy-2" transform="translate(1151.000000, 157.000000)">
                <g id="icon-@-hover" transform="translate(97.000000, 9.000000)">
                    <path d="M28.8423466,20.4285714 C29.4792938,20.4285714 30,19.9169172 30,19.2857598 L30,1.14281166 C30,0.519667353 29.4817009,0 28.8423466,0 L1.15765342,0 C0.520706177,0 0,0.511654207 0,1.14281166 L0,19.2857598 C0,19.9089041 0.518299093,20.4285714 1.15765342,20.4285714 L10.8974359,20.4285714 L15,25 L19.1025641,20.4285714 L28.8423466,20.4285714 Z" id="Combined-Shape" stroke="#6F7276" stroke-width="1.5" stroke-linecap="round" stroke-linejoin="round"></path>
                    <path d="M17.9724365,13.9184495 C17.5813892,13.9184495 17.2320396,13.8264397 16.9243774,13.6424174 C16.6167151,13.4583952 16.4025049,13.1622387 16.2817403,12.7539393 C15.9424492,13.1679894 15.5830361,13.4641459 15.2034901,13.6424174 C14.8239442,13.820689 14.4156509,13.9098235 13.978598,13.9098235 C13.6163041,13.9098235 13.3014582,13.8465668 13.0340508,13.7200514 C12.7666435,13.5935361 12.5423697,13.4195802 12.3612227,13.1981784 C12.1800758,12.9767766 12.0449365,12.7151238 11.9558007,12.4132123 C11.8666649,12.1113007 11.8220977,11.7820783 11.8220977,11.4255351 C11.8220977,11.0977454 11.8637896,10.7656477 11.9471747,10.429232 C12.0305598,10.0928162 12.1556355,9.76790678 12.3224057,9.45449384 C12.4891759,9.14108089 12.6976355,8.84779978 12.9477908,8.57464171 C13.1979461,8.30148364 13.4926649,8.06283333 13.8319559,7.85868361 C14.171247,7.65453389 14.5507873,7.49351681 14.9705881,7.37562754 C15.3903889,7.25773827 15.8561883,7.19879452 16.3680003,7.19879452 C16.8108039,7.19879452 17.1903442,7.23329818 17.5066325,7.30230653 C17.8229208,7.37131489 18.1277031,7.46907526 18.4209886,7.59559057 L17.5928925,10.795837 C17.5008813,11.1638816 17.4548765,11.4715392 17.4548765,11.7188192 C17.4548765,11.89134 17.4764413,12.0351053 17.5195715,12.1501192 C17.5627017,12.2651331 17.6202078,12.3571429 17.6920915,12.4261513 C17.7639752,12.4951596 17.851672,12.5426022 17.9551845,12.5684803 C18.0586971,12.5943584 18.170834,12.6072973 18.2915986,12.6072973 C18.5331278,12.6072973 18.7617146,12.5311017 18.9773657,12.3787083 C19.1930168,12.2263148 19.3813493,12.0121046 19.5423688,11.7360712 C19.7033883,11.4600377 19.8313393,11.132253 19.9262258,10.752707 C20.0211123,10.3731611 20.0685548,9.95911715 20.0685548,9.51056285 C20.0685548,8.76297234 19.952105,8.10452749 19.7192018,7.53520856 C19.4862986,6.96588964 19.1613891,6.49002666 18.7444636,6.10760536 C18.3275382,5.72518406 17.8286728,5.43765356 17.2478524,5.24500524 C16.6670321,5.05235691 16.0315897,4.9560342 15.3415062,4.9560342 C14.588165,4.9560342 13.8880282,5.09836179 13.2410749,5.38302126 C12.5941215,5.66768072 12.0334371,6.05728455 11.5590046,6.55184442 C11.0845722,7.0464043 10.7136578,7.63009121 10.4462505,8.30292267 C10.1788431,8.97575413 10.0451414,9.70033099 10.0451414,10.476675 C10.0451414,11.4197892 10.191782,12.2493147 10.4850675,12.9652763 C10.778353,13.681238 11.1808957,14.2793015 11.6927076,14.7594846 C12.2045196,15.2396677 12.806896,15.6005185 13.4998549,15.8420478 C14.1928138,16.083577 14.9418307,16.2043398 15.7469282,16.2043398 C16.1897318,16.2043398 16.6037757,16.1798997 16.9890724,16.1310188 C17.374369,16.0821379 17.7280316,16.0160059 18.0500705,15.9326208 C18.3721095,15.8492357 18.6653906,15.7543506 18.9299227,15.6479627 C19.1944547,15.5415748 19.4302297,15.4280003 19.6372548,15.3072357 C19.7522687,15.243978 19.8500291,15.2123497 19.9305388,15.2123497 C20.097309,15.2123497 20.2151965,15.3043594 20.2842049,15.4883817 L20.5774889,16.2560958 C19.9794165,16.6471432 19.2807174,16.966302 18.4813706,17.2135819 C17.6820238,17.4608619 16.7705522,17.5845 15.7469282,17.5845 C14.7060522,17.5845 13.742825,17.4206076 12.8572178,17.0928179 C11.9716106,16.7650282 11.2053418,16.2949159 10.5583885,15.6824667 C9.91143515,15.0700176 9.40538147,14.3238759 9.04021226,13.4440194 C8.67504305,12.5641629 8.49246118,11.575058 8.49246118,10.476675 C8.49246118,9.86135049 8.57153207,9.26328705 8.72967622,8.68246673 C8.88782036,8.10164641 9.11353181,7.55677611 9.40681731,7.04783949 C9.70010282,6.53890288 10.0537653,6.07166582 10.4678155,5.64611429 C10.8818656,5.22056277 11.3419144,4.85539904 11.8479757,4.55061214 C12.3540369,4.24582524 12.9017825,4.00861258 13.4912289,3.83896704 C14.0806753,3.6693215 14.6974282,3.5845 15.3415062,3.5845 C16.158105,3.5845 16.9416256,3.72107699 17.6920915,3.99423506 C18.4425574,4.26739313 19.1067528,4.65843461 19.6846978,5.16737123 C20.2626428,5.67630784 20.7241292,6.29737372 21.069171,7.03058749 C21.4142128,7.76380126 21.5867311,8.59045145 21.5867311,9.51056285 C21.5867311,10.1258873 21.4961589,10.702386 21.315012,11.2400761 C21.1338651,11.7777662 20.8808382,12.2450033 20.5559239,12.6418013 C20.2310096,13.0385993 19.848594,13.3505699 19.4086657,13.5777224 C18.9687375,13.8048749 18.4899992,13.9184495 17.9724365,13.9184495 L17.9724365,13.9184495 Z M14.401272,12.5382893 C14.5507901,12.5382893 14.7017436,12.5152868 14.8541371,12.4692813 C15.0065305,12.4232757 15.1517334,12.3413295 15.2897502,12.2234402 C15.4277669,12.105551 15.5542803,11.9488468 15.6692942,11.7533232 C15.7843081,11.5577995 15.8791932,11.3133986 15.9539522,11.0201131 L16.5836503,8.58758071 C16.3996281,8.55307654 16.2098579,8.53582471 16.0143343,8.53582471 C15.6577911,8.53582471 15.3242557,8.61345794 15.0137181,8.76872674 C14.7031805,8.92399554 14.4343395,9.1338928 14.207187,9.39842483 C13.9800345,9.66295686 13.8003279,9.96630153 13.6680619,10.308468 C13.5357959,10.6506344 13.4696639,11.0057346 13.4696639,11.3737791 C13.4696639,11.7418237 13.5487348,12.0279165 13.7068789,12.2320662 C13.8650231,12.436216 14.0964851,12.5382893 14.401272,12.5382893 L14.401272,12.5382893 Z" id="@-copy" fill="#6F7276"></path>
                </g>
            </g>
        </g>
    </g>
</svg>