<?xml version="1.0" encoding="UTF-8" standalone="no"?>
<svg width="28px" height="24px" viewBox="0 0 28 24" version="1.1" xmlns="http://www.w3.org/2000/svg" xmlns:xlink="http://www.w3.org/1999/xlink">
    <!-- Generator: Sketch 3.8.3 (29802) - http://www.bohemiancoding.com/sketch -->
    <title>@</title>
    <desc>Created with Sketch.</desc>
    <defs></defs>
    <g id="线索管理_线索详情" stroke="none" stroke-width="1" fill="none" fill-rule="evenodd">
        <g id="跟进记录" transform="translate(-1490.000000, -1039.000000)" fill="#94989E">
            <g id="record_add" transform="translate(1372.000000, 460.000000)">
                <g id="@" transform="translate(118.000000, 578.000000)">
                    <path d="M13.6832325,24.1745247 C13.6838276,24.1745247 13.2228471,24.0564002 13.0989295,23.8641954 L10.25334,19.4502081 L3.93025121,19.4502081 C1.85459619,19.4502081 0.165956157,17.8526963 0.165956157,15.8890549 L0.165956157,4.69567785 C0.165956157,2.7320365 1.85459619,1.1345247 3.93025121,1.1345247 L23.4361439,1.13452467 C25.5117989,1.13452467 27.2004389,2.73203646 27.2004389,4.69567782 L27.2004389,15.8890549 C27.2004389,17.8526962 25.5117989,19.450208 23.4361439,19.450208 L17.1450496,19.450208 C17.1450496,19.450208 15.3762386,22.1634768 14.4918331,23.5201111 C14.4164722,23.635711 14.2657504,23.8669109 14.2657504,23.8669109 C14.1411326,24.0581222 13.6832325,24.1745247 13.6832325,24.1745247 Z M1.53479071,4.69567785 L1.53479071,15.8890549 C1.53479071,17.1386178 2.60940846,18.1552433 3.93025121,18.1552433 L10.6375546,18.1552433 C10.8762186,18.1552433 11.09759,18.2728379 11.2218577,18.4655725 L13.686488,22.2886064 L16.1804525,18.462857 C16.3051052,18.2716457 16.5256016,18.1552433 16.7630053,18.1552433 L23.4361439,18.1552433 C24.7569866,18.1552433 25.8316044,17.1386178 25.8316044,15.8890549 L25.8316043,4.69567785 C25.8316043,3.44608187 24.7569866,2.42948947 23.4361438,2.42948947 L3.93025121,2.42948947 C2.60940846,2.42948947 1.53479071,3.44608187 1.53479071,4.69567785 Z" id="Shape"></path>
                    <text font-family="PingFangSC-Medium, PingFang SC" font-size="14" font-weight="400">
                        <tspan x="7.46924138" y="15">@</tspan>
                    </text>
                </g>
            </g>
        </g>
    </g>
</svg>