<?xml version="1.0" encoding="utf-8"?>
<!-- Generator: Adobe Illustrator 16.0.0, SVG Export Plug-In . SVG Version: 6.00 Build 0)  -->
<!DOCTYPE svg PUBLIC "-//W3C//DTD SVG 1.1//EN" "http://www.w3.org/Graphics/SVG/1.1/DTD/svg11.dtd">
<svg version="1.1" id="图形" xmlns="http://www.w3.org/2000/svg" xmlns:xlink="http://www.w3.org/1999/xlink" x="0px" y="0px"
	 width="1024px" height="1024px" viewBox="0 0 1024 1024" enable-background="new 0 0 1024 1024" xml:space="preserve">
<path fill="#272636" d="M835,320H711.6c-64.199-72-84.399-96-109-96h-177c-24.6,0-44.399,24-109,96H290v-32h-68v32h-27
	c-35.2,0-67,26.4-67,61.4v352c0,35,31.8,66.6,67,66.6h640c35.2,0,61-31.6,61-66.6v-352C896,346.4,870.2,320,835,320z M864,733.4
	c0,18.6-12.4,34.6-29,34.6H195c-17.4,0-35-17.4-35-34.6v-352c0-16.4,16.2-29.4,35-29.4h121.4H330.6l9.601-6.4
	c8-9,15.399-20,22.2-27.6c22.6-25.4,39-43.4,50.6-53.8c9.4-8.4,12.4-8.2,12.4-8.2h177c0,0,3.199-0.2,13.399,9
	c12.2,11,29.4,33,53.2,59.6c5.8,6.6,12,13.6,18.6,21l9.601,6.4H711.6H835c17.6,0,29,12,29,29.4V733.4z M512,379
	c-94.2,0-171,76.8-171,171s76.8,171,171,171s171-76.8,171-171S606.2,379,512,379z M512,689c-76.8,0-139-62.2-139-139
	s62.2-139,139-139s139,62.2,139,139S588.8,689,512,689z M704,384h34v34h-34V384z M448,550c0-35.347,28.653-64,64-64s64,28.653,64,64
	s-28.653,64-64,64S448,585.347,448,550z"/>
</svg>
