<?xml version="1.0" encoding="utf-8"?>
<!DOCTYPE svg PUBLIC "-//W3C//DTD SVG 1.1//EN" "http://www.w3.org/Graphics/SVG/1.1/DTD/svg11.dtd">
<svg version="1.1" id="图形" xmlns="http://www.w3.org/2000/svg" xmlns:xlink="http://www.w3.org/1999/xlink" x="0px" y="0px" width="1024px" height="1024px" viewBox="0 0 1024 1024" enable-background="new 0 0 1024 1024" xml:space="preserve">
  <path fill="#272636" d="M512-212c136.752 0 265.328 53.264 362.016 149.968C970.736 34.672 1024 163.248 1024 300s-53.264 265.328-149.968 362.016C777.328 758.736 648.752 812 512 812S246.672 758.736 149.984 662.032C53.264 565.328 0 436.752 0 300s53.264-265.328 149.968-362.016C246.672-158.736 375.248-212 512-212zM195.232 616.768C279.84 701.392 392.336 748 512 748s232.16-46.608 316.768-131.232C913.392 532.16 960 419.664 960 300s-46.608-232.16-131.232-316.768C744.16-101.392 631.664-148 512-148s-232.16 46.608-316.768 131.232C110.608 67.84 64 180.336 64 300S110.608 532.16 195.232 616.768zM382.992 44c0.336 0 0.672 0 1.008 0 8.688 0 17.024 3.536 23.072 9.824l400 416c12.24 12.736 11.856 32.992-0.896 45.248-12.752 12.256-32.992 11.84-45.248-0.896L385.52 123.744l-153.088 180.928c-11.424 13.504-31.616 15.184-45.104 3.76-13.488-11.408-15.168-31.616-3.76-45.104l176-208C365.424 48.4 373.936 44 382.992 44z" transform="translate(0, 812) scale(1, -1)"/>
</svg>
