<?xml version="1.0" encoding="utf-8"?>
<!DOCTYPE svg PUBLIC "-//W3C//DTD SVG 1.1//EN" "http://www.w3.org/Graphics/SVG/1.1/DTD/svg11.dtd">
<svg version="1.1" id="图形" xmlns="http://www.w3.org/2000/svg" xmlns:xlink="http://www.w3.org/1999/xlink" x="0px" y="0px" width="1024px" height="1024px" viewBox="0 0 1024 1024" enable-background="new 0 0 1024 1024" xml:space="preserve">
  <path fill="#272636" d="M512.222609 789.73913c-270.469565 0-489.73913-219.269565-489.73913-489.73913s219.269565-489.73913 489.73913-489.73913 489.73913 219.269565 489.73913 489.73913S782.692174 789.73913 512.222609 789.73913zM814.592 470.451478 471.596522 106.018783c-6.544696-6.945391-15.404522-10.50713-24.33113-10.50713-7.457391 0-14.937043 2.470957-21.125565 7.546435L190.330435 295.993043c-14.269217 11.686957-16.384 32.723478-4.697043 46.992696 11.686957 14.291478 32.701217 16.384 46.992696 4.697043l211.70087-173.211826 321.625043 341.74887c12.688696 13.467826 33.792 14.046609 47.215304 1.424696C826.568348 505.000348 827.213913 483.874783 814.592 470.451478z" transform="translate(0, 812) scale(1, -1)"/>
</svg>
