<?xml version="1.0" encoding="UTF-8" standalone="no"?>
<svg width="230px" height="201px" viewBox="0 0 230 201" version="1.1" xmlns="http://www.w3.org/2000/svg" xmlns:xlink="http://www.w3.org/1999/xlink">
    <!-- Generator: Sketch 3.8.3 (29802) - http://www.bohemiancoding.com/sketch -->
    <title>Shape</title>
    <desc>Created with Sketch.</desc>
    <defs></defs>
    <g id="规范" stroke="none" stroke-width="1" fill="none" fill-rule="evenodd">
        <g id="签到" fill="#E0E0E0">
            <path d="M187.438096,52.5088299 C187.430593,52.4675695 187.416919,52.4289809 187.396775,52.3932451 C170.268695,22.0083846 137.136501,0.860456321 99.8199995,0.860456321 C44.6909356,0.860456321 0,45.6319809 0,100.860456 C0,148.797169 33.6689731,188.855894 78.6087882,198.598105 C85.444684,200.080015 92.5413662,200.860456 99.8199995,200.860456 L99.8199995,200.860456 C102.940512,200.860456 105.470188,198.326219 105.470188,195.200079 C105.470188,192.073939 102.940512,189.539702 99.8199995,189.539702 C93.4281067,189.539702 87.1312389,188.862856 80.9987953,187.533445 C40.6077099,178.777324 11.3003773,142.808988 11.3003773,100.860456 C11.3003773,51.8842601 50.9319607,12.181211 99.8199995,12.181211 C132.403922,12.181211 162.526343,30.8711961 177.979793,58.7611696 C178.001908,58.8010866 178.035953,58.8315696 178.080981,58.8531847 C179.104949,60.2963318 180.78744,61.2378149 182.689433,61.2378149 C185.809945,61.2378149 188.339621,58.7035771 188.339621,55.5774374 C188.339621,54.4464337 188.008509,53.3929016 187.438096,52.5088299 L187.438096,52.5088299 L187.438096,52.5088299 Z M142.296268,167.973943 L206.51279,79.4281017 C210.176403,74.3764751 217.259332,73.2749732 222.316748,76.9560262 L225.307744,79.13303 C230.372414,82.819362 231.524006,89.8810828 227.84458,94.9545054 L163.628062,183.500347 L142.296268,167.973943 L142.296268,167.973943 Z M140.082204,171.026837 L161.413998,186.553241 L135.641646,199.619781 L140.082204,171.026837 L140.082204,171.026837 Z M58.3852827,83.8793243 C65.666481,83.8793243 71.5690561,77.9661054 71.5690561,70.671777 C71.5690561,63.3774489 65.666481,57.46423 58.3852827,57.46423 C51.1040841,57.46423 45.2015093,63.3774489 45.2015093,70.671777 C45.2015093,77.9661054 51.1040841,83.8793243 58.3852827,83.8793243 L58.3852827,83.8793243 Z M137.487924,83.8793243 C144.769122,83.8793243 150.671697,77.9661054 150.671697,70.671777 C150.671697,63.3774489 144.769122,57.46423 137.487924,57.46423 C130.206725,57.46423 124.30415,63.3774489 124.30415,70.671777 C124.30415,77.9661054 130.206725,83.8793243 137.487924,83.8793243 L137.487924,83.8793243 Z M47.3743721,123.731385 C54.1092274,146.898422 75.3762776,163.124607 99.8199995,163.124607 C124.198514,163.124607 145.422977,146.984264 152.215302,123.903437 C153.391867,119.905377 151.110431,115.708796 147.119567,114.530109 C143.128707,113.351419 138.939676,115.636973 137.76311,119.63503 C132.847431,136.338864 117.473306,148.030268 99.8199995,148.030268 C82.119563,148.030268 66.7145234,136.276641 61.8405425,119.510766 C60.6771461,115.508841 56.4956676,113.209456 52.5009465,114.374947 C48.5062254,115.540441 46.2109794,119.72946 47.3743721,123.731385 L47.3743721,123.731385 Z" id="Shape"></path>
        </g>
    </g>
</svg>