<?xml version="1.0" encoding="utf-8"?>
<!DOCTYPE svg PUBLIC "-//W3C//DTD SVG 1.1//EN" "http://www.w3.org/Graphics/SVG/1.1/DTD/svg11.dtd">
<svg version="1.1" id="图形" xmlns="http://www.w3.org/2000/svg" xmlns:xlink="http://www.w3.org/1999/xlink" x="0px" y="0px" width="1024px" height="1024px" viewBox="0 0 1024 1024" enable-background="new 0 0 1024 1024" xml:space="preserve">
  <path fill="#272636" d="M21.333 800v0zM42.667 800v0zM64 800v0zM85.333 800v0zM106.667 800v0zM128 800v0zM149.333 800v0zM170.667 800v0zM192 800v0zM213.333 800v0zM234.667 800v0zM256 800v0zM277.333 800v0zM298.667 800v0zM320 800v0zM341.333 800v0zM362.667 800v0zM384 800v0zM405.333 800v0zM426.667 800v0zM448 800v0zM469.333 800v0zM490.667 800v0zM512 800v0zM533.333 800v0zM554.667 800v0zM576 800v0zM597.333 800v0zM618.667 800v0zM640 800v0zM661.333 800v0zM682.667 800v0zM704 800v0zM725.333 800v0zM746.667 800v0zM768 800v0zM789.333 800v0zM810.667 800v0zM832 800v0zM853.333 800v0zM874.667 800v0zM896 800v0zM917.333 800v0zM938.667 800v0zM960 800v0zM981.333 800v0zM1002.667 800v0zM0 778.667v0zM0 757.333v0zM0 736v0zM0 714.667v0zM0 693.333v0zM0 672v0zM0 650.667v0zM0 629.333v0zM0 608v0zM0 586.667v0zM0 565.333v0zM0 544v0zM0 522.667v0zM0 501.333v0zM0 480v0zM0 458.667v0zM0 437.333v0zM0 416v0zM0 394.667v0zM0 373.333v0zM0 352v0zM0 330.667v0zM0 309.333v0zM0 288v0zM0 266.667v0zM0 245.333v0zM0 224v0zM0 202.667v0zM0 181.333v0zM0 160v0zM0 138.667v0zM0 117.333v0zM0 96v0zM0 74.667v0zM0 53.333v0zM0 32v0zM0 10.667v0zM0-10.667v0zM0-32v0zM0-53.333v0zM0-74.667v0zM0-96v0zM0-117.333v0zM0-138.667v0zM0-160v0zM0-181.333v0zM0-202.667v0zM896 586.667q18.333 0 30.5-12.167t12.167-30.5q0-18-12.333-30.333l-512-512q-12.333-12.333-30.333-12.333t-30.333 12.333l-256 256q-12.333 12.333-12.333 30.333 0 18.333 12.167 30.5t30.5 12.167q18 0 30.333-12.333l225.667-226 481.667 482q12.333 12.333 30.333 12.333z" transform="translate(0, 812) scale(1, -1)"/>
</svg>
