<?xml version="1.0" encoding="UTF-8" standalone="no"?>
<svg width="30px" height="18px" viewBox="0 0 30 18" version="1.1" xmlns="http://www.w3.org/2000/svg" xmlns:xlink="http://www.w3.org/1999/xlink">
    <!-- Generator: Sketch 3.8.3 (29802) - http://www.bohemiancoding.com/sketch -->
    <title>Shape</title>
    <desc>Created with Sketch.</desc>
    <defs></defs>
    <g id="学员管理" stroke="none" stroke-width="1" fill="none" fill-rule="evenodd">
        <g id="学生签到" transform="translate(-1257.000000, -526.000000)" fill="#0093FF">
            <g id="classes" transform="translate(222.000000, 274.000000)">
                <g id="list" transform="translate(40.000000, 231.000000)">
                    <g id="list1">
                        <path d="M1024.51658,28.7660348 C1022.57091,26.8242382 1017.21093,21 1009.83257,21 C1002.64579,21 998.125434,25.9745609 995.614812,28.4579137 C994.834701,29.2288746 994.819216,30.8027518 995.442354,31.4402155 C998.307367,34.3651867 1002.77785,39 1009.83257,39 C1018.34059,39 1022.58281,33.8859785 1024.42626,31.8434627 C1025.26476,30.9152333 1025.08625,29.3355572 1024.51658,28.7660348 L1024.51658,28.7660348 L1024.51658,28.7660348 Z M1010.02415,36.4827588 C1006.24934,36.4827588 1003.18933,33.6024512 1003.18933,30.0491464 C1003.18933,26.4960061 1006.24934,23.615534 1010.02415,23.615534 C1013.79891,23.615534 1016.85892,26.4960061 1016.85892,30.0491464 C1016.85896,33.6024512 1013.79874,36.4827588 1010.02415,36.4827588 L1010.02415,36.4827588 L1010.02415,36.4827588 Z M1010.02415,26.2007576 C1007.76558,26.2007576 1005.93535,27.9234312 1005.93535,30.0491464 C1005.93535,32.175026 1007.76558,33.8976585 1010.02415,33.8976585 C1012.28138,33.8976585 1014.1116,32.175026 1014.1116,30.0491464 C1014.1116,27.9234312 1012.28138,26.2007576 1010.02415,26.2007576 L1010.02415,26.2007576 L1010.02415,26.2007576 Z" id="Shape"></path>
                    </g>
                </g>
            </g>
        </g>
    </g>
</svg>