<?xml version="1.0" encoding="utf-8"?>
<!-- Generator: Adobe Illustrator 18.0.0, SVG Export Plug-In . SVG Version: 6.00 Build 0)  -->
<!DOCTYPE svg PUBLIC "-//W3C//DTD SVG 1.1//EN" "http://www.w3.org/Graphics/SVG/1.1/DTD/svg11.dtd">
<svg version="1.1" id="图层_1" xmlns="http://www.w3.org/2000/svg" xmlns:xlink="http://www.w3.org/1999/xlink" x="0px" y="0px"
	 width="89.3px" height="82.8px" viewBox="0 0 89.3 82.8" enable-background="new 0 0 89.3 82.8" xml:space="preserve">
<g>
	<g>
		<path fill="#DDDDDD" d="M9.7,71.9c-2.4,0-4.3-1.9-4.3-4.3v-45c0-2.4,1.9-4.3,4.3-4.3h66.6c2.4,0,4.3,1.9,4.3,4.3v10
			c1.9,1.2,3.7,2.6,5.4,4.2V17c0-6.5-6-5.9-6-5.9s-35.6,0-33.7,0c-2,0.1-3-1.1-3-1.1s-1.4-2.4-4-6.3c-2.7-4-5.8-3.4-5.8-3.4H7.4
			c-7.3,0-7.4,7-7.4,7v63.1c0,7.8,5.9,6.8,5.9,6.8h32.6c-1.2-1.7-2.2-3.4-3-5.3L9.7,71.9z M64.1,32.7c-13.7,0-24.8,11.1-24.8,24.8
			c0,13.7,11.2,24.8,24.9,24.8C77.8,82.3,89,71.2,89,57.5C89,43.8,77.9,32.7,64.1,32.7z M80.6,49.7L61,69.4c-1.1,1.1-2.9,1.1-4.1,0
			l-9.2-9.2c-1.1-1.1-1.1-3,0-4.1c1.1-1.1,2.9-1.1,4.1,0l7.1,7.2l17.6-17.7c1.1-1.1,2.9-1.1,4.1,0C81.7,46.7,81.7,48.5,80.6,49.7z"
			/>
	</g>
</g>
</svg>
