<?xml version="1.0" encoding="utf-8"?>
<!DOCTYPE svg PUBLIC "-//W3C//DTD SVG 1.1//EN" "http://www.w3.org/Graphics/SVG/1.1/DTD/svg11.dtd">
<svg version="1.1" id="图形" xmlns="http://www.w3.org/2000/svg" xmlns:xlink="http://www.w3.org/1999/xlink" x="0px" y="0px" width="1024px" height="1024px" viewBox="0 0 1024 1024" enable-background="new 0 0 1024 1024" xml:space="preserve">
  <path fill="#272636" d="M563.232-120.381h-98.304q-7.424 0-12.873 5.157t-5.413 13.129v188.562h-164.571q-7.424 0-12.873 5.157t-5.413 13.129v58.843q0 7.424 5.413 12.873t12.873 5.413h164.571v48.567h-164.571q-7.424 0-12.873 5.157t-5.413 13.129v59.429q0 7.424 5.413 12.873t12.873 5.413h122.295l-183.442 330.277q-4.571 9.143 0 18.286 5.705 9.143 16.018 9.143h110.848q10.862 0 16.567-10.277l122.843-242.871q10.862-21.723 32-71.424 5.705 13.714 17.445 38.839t15.726 34.853l109.129 240.018q4.571 10.862 16.567 10.862h109.129q9.728 0 15.433-9.143 5.157-8.009 0.585-17.701l-178.871-330.862h122.843q7.424 0 12.873-5.413t5.413-12.873v-59.429q0-8.009-5.413-13.129t-12.873-5.157h-165.705v-48.567h165.705q7.424 0 12.873-5.413t5.413-12.873v-58.843q0-8.009-5.413-13.129t-12.873-5.157h-165.705v-188.562q0-7.424-5.413-12.873t-12.873-5.413z" transform="translate(0, 812) scale(1, -1)"/>
</svg>
