<?xml version="1.0" encoding="UTF-8" standalone="no"?>
<svg width="21px" height="17px" viewBox="0 0 21 17" version="1.1" xmlns="http://www.w3.org/2000/svg" xmlns:xlink="http://www.w3.org/1999/xlink">
    <!-- Generator: Sketch 3.8.3 (29802) - http://www.bohemiancoding.com/sketch -->
    <title>Shape</title>
    <desc>Created with Sketch.</desc>
    <defs></defs>
    <g id="学员管理" stroke="none" stroke-width="1" fill="none" fill-rule="evenodd">
        <g id="nav_btn_index" transform="translate(-38.000000, -321.000000)" fill="#FFFFFF">
            <g id="课程管理">
                <g transform="translate(0.000000, 308.000000)">
                    <path d="M40.9970717,18.533045 L45.6211626,18.533045 L45.6211626,19.1230716 L40.9970717,19.1230716 L40.9970717,18.533045 L40.9970717,18.533045 Z M50.8159354,24.4391977 C50.8491172,24.4523295 50.8829808,24.4566313 50.917299,24.4579898 C50.9216172,24.4579898 50.924799,24.4604803 50.9293444,24.4604803 C50.9361626,24.4604803 50.9418444,24.4568577 50.9468444,24.4568577 C50.9725263,24.4557257 50.9975263,24.4505182 51.0220717,24.4425938 C51.0313899,24.4401033 51.0402535,24.4369336 51.0495717,24.433311 C51.0813899,24.4190471 51.1116172,24.4009343 51.1366172,24.3753498 L52.7977535,22.7243621 L54.4593444,24.3753498 C54.4843444,24.4009343 54.5138899,24.4183679 54.5443444,24.4326318 C54.5543444,24.4369336 54.5636626,24.4401033 54.5743444,24.4425938 C54.5975263,24.4514239 54.6211626,24.4557257 54.6470717,24.4568577 C54.6538899,24.4568577 54.6595717,24.4604803 54.6659354,24.4604803 C54.6695717,24.4604803 54.6734354,24.4579898 54.6777535,24.4579898 C54.7120717,24.4568577 54.7459354,24.4516503 54.7786626,24.4391977 C54.8157081,24.4235753 54.8482081,24.4011607 54.8738899,24.374897 C54.9291172,24.3212376 54.9602535,24.2469749 54.9602535,24.1672783 L54.9602535,15.7198905 L54.9602535,14.3152378 L54.9602535,13.3310299 C54.9602535,13.2531446 54.9295717,13.1782026 54.8743444,13.1234112 C54.8193444,13.0683934 54.7441172,13.0378279 54.6659354,13.0378279 L50.9286626,13.0378279 L50.9286626,13.0378279 C50.9000263,13.0378279 50.8741172,13.0466579 50.8479808,13.0534502 C50.8366172,13.0559408 50.824799,13.0559408 50.8141172,13.0595633 C50.7082081,13.1039399 50.6343444,13.2080888 50.6343444,13.3296715 L50.6343444,14.3077662 L50.6343444,15.7092492 L50.6343444,24.1677311 C50.6350263,24.2859176 50.7070717,24.3930099 50.8159354,24.4391977 L50.8159354,24.4391977 L50.8159354,24.4391977 Z M40.9970717,20.1928627 L45.6211626,20.1928627 L45.6211626,20.7828893 L40.9970717,20.7828893 L40.9970717,20.1928627 L40.9970717,20.1928627 Z M40.9970717,21.8529069 L45.6211626,21.8529069 L45.6211626,22.4429335 L40.9970717,22.4429335 L40.9970717,21.8529069 L40.9970717,21.8529069 Z M40.9970717,23.5127246 L45.6211626,23.5127246 L45.6211626,24.1027512 L40.9970717,24.1027512 L40.9970717,23.5127246 L40.9970717,23.5127246 Z M52.7663899,28.6407033 C54.3643444,28.6407033 55.9320717,28.7654557 57.2993444,29.0006965 C57.3388899,29.0081681 57.3788899,29.0120171 57.4177535,29.0120171 C57.5811626,29.0120171 57.7395717,28.9547351 57.8652535,28.8492277 C58.0220717,28.7160981 58.1134354,28.5241017 58.1134354,28.3182943 L58.1134354,16.2177679 C58.112299,15.3270677 57.1166172,14.7743989 55.7943444,14.470782 L55.7943444,14.470782 L55.7943444,15.4821591 C56.2884354,15.6200433 57.1302535,15.9367921 57.2479808,16.0522616 L57.2479808,28.1063738 C54.774799,27.7694745 51.2807081,27.7694745 48.8075263,28.1063738 L48.8075263,15.8869817 C48.9309354,15.7660783 49.2677535,15.6057794 49.8004808,15.4640463 L49.8004808,14.5393845 C49.1293444,14.6897213 48.7875263,14.8180962 48.3625263,15.1038267 C47.3582081,14.428896 45.1836626,14.1662594 43.4600263,14.1662594 C40.9941172,14.1662594 38.1134354,14.7033059 38.1134354,16.2177679 L38.1134354,28.3182943 C38.1134354,28.5241017 38.2041172,28.7163245 38.3607081,28.8490013 C38.5179808,28.980546 38.7257081,29.0355638 38.927299,29.0006965 C40.2952535,28.7654557 41.6975263,28.4559521 43.3209354,28.5012343 C44.5959354,28.5367808 45.9093444,28.6785139 48.3434354,29.0378279 C50.0125263,28.75572 52.7663899,28.6407033 52.7663899,28.6407033 L52.7663899,28.6407033 Z M47.917299,28.1077322 C46.6807081,27.9392826 44.829799,27.6854761 43.4604808,27.6854761 C42.0911626,27.6854761 40.2136626,27.9399618 38.9770717,28.1077322 L38.9770717,16.1358072 C39.1943444,15.5677424 41.1738899,14.9661689 43.4604808,14.9661689 C45.7470717,14.9661689 47.6352535,15.4020097 47.917299,15.8869817 L47.917299,28.1758819 L47.917299,28.1077322 L47.917299,28.1077322 Z" id="Shape"></path>
                </g>
            </g>
        </g>
    </g>
</svg>