<?xml version="1.0" encoding="utf-8"?>
<!DOCTYPE svg PUBLIC "-//W3C//DTD SVG 1.1//EN" "http://www.w3.org/Graphics/SVG/1.1/DTD/svg11.dtd">
<svg version="1.1" id="图形" xmlns="http://www.w3.org/2000/svg" xmlns:xlink="http://www.w3.org/1999/xlink" x="0px" y="0px" width="1024px" height="1024px" viewBox="0 0 1024 1024" enable-background="new 0 0 1024 1024" xml:space="preserve">
  <path fill="#272636" d="M512-173.946312c270.006504 0 488.866117 218.859613 488.866117 488.866117S782.006504 803.784898 512 803.784898 23.133883 584.926308 23.133883 314.918781 241.993496-173.946312 512-173.946312zM512 712.122245c219.378429 0 397.203464-177.825035 397.203464-397.203464S731.378429-82.284683 512-82.284683 114.796536 95.540352 114.796536 314.918781 292.621571 712.122245 512 712.122245zM389.783471 131.594499c0 67.494207 54.722322 122.216529 122.216529 122.216529s122.216529-54.722322 122.216529-122.216529-54.722322-122.216529-122.216529-122.216529S389.783471 64.100292 389.783471 131.594499zM634.216529 467.69021c0 50.628074 27.345812 91.662653 61.107753 91.662653s61.107753-41.034579 61.107753-91.662653-27.345812-91.662653-61.107753-91.662653S634.216529 417.061113 634.216529 467.69021zM267.566942 467.69021c0 50.628074 27.345812 91.662653 61.107753 91.662653s61.107753-41.034579 61.107753-91.662653-27.345812-91.662653-61.107753-91.662653S267.566942 417.061113 267.566942 467.69021z" transform="translate(0, 812) scale(1, -1)"/>
</svg>
