<?xml version="1.0" encoding="utf-8"?>
<!-- Generator: Adobe Illustrator 18.0.0, SVG Export Plug-In . SVG Version: 6.00 Build 0)  -->
<!DOCTYPE svg PUBLIC "-//W3C//DTD SVG 1.1//EN" "http://www.w3.org/Graphics/SVG/1.1/DTD/svg11.dtd">
<svg version="1.1" id="图层_1" xmlns="http://www.w3.org/2000/svg" xmlns:xlink="http://www.w3.org/1999/xlink" x="0px" y="0px"
	 width="32px" height="32px" viewBox="0 0 32 32" enable-background="new 0 0 32 32" xml:space="preserve">
<g>
	<g>
		<path fill="#555555" d="M30.2,17c-0.5-0.1-1,0.3-1.1,0.8c-0.8,5.9-5.5,10.6-11.4,11.4c-0.5,0.1-0.9,0.5-0.8,1.1
			c0.1,0.5,0.5,0.8,0.9,0.8c0,0,0.1,0,0.1,0c6.7-0.9,12.1-6.2,13-13C31.1,17.5,30.7,17,30.2,17z M14.2,29.1
			C8.3,28.3,3.7,23.7,2.9,17.8c-0.1-0.5-0.5-0.9-1.1-0.8C1.3,17,0.9,17.5,1,18c0.9,6.7,6.2,12.1,13,13c0,0,0.1,0,0.1,0
			c0.5,0,0.9-0.3,0.9-0.8C15.1,29.7,14.8,29.2,14.2,29.1z M1.8,15c0,0,0.1,0,0.1,0c0.5,0,0.9-0.3,0.9-0.8C3.7,8.3,8.3,3.7,14.2,2.9
			c0.5-0.1,0.9-0.5,0.8-1.1C15,1.3,14.5,0.9,14,1C7.2,1.9,1.9,7.2,1,14C0.9,14.5,1.3,15,1.8,15z M17.8,2.9
			c5.9,0.8,10.6,5.5,11.4,11.4c0.1,0.5,0.5,0.8,0.9,0.8c0,0,0.1,0,0.1,0c0.5-0.1,0.9-0.5,0.8-1.1C30.1,7.2,24.8,1.9,18,1
			c-0.5-0.1-1,0.3-1.1,0.8C16.9,2.3,17.2,2.8,17.8,2.9z M17.8,21.3c0.1,0,0.2,0,0.4-0.1c1.3-0.6,2.4-1.6,3-3c0.2-0.5,0-1-0.5-1.2
			c-0.5-0.2-1,0-1.2,0.5c-0.4,0.9-1.1,1.6-2,2c-0.5,0.2-0.7,0.8-0.5,1.2C17.1,21.1,17.5,21.3,17.8,21.3z M14.5,19.5
			c-0.9-0.4-1.6-1.1-2-2c-0.2-0.5-0.8-0.7-1.2-0.5c-0.5,0.2-0.7,0.8-0.5,1.2c0.6,1.3,1.6,2.4,3,3c0.1,0.1,0.3,0.1,0.4,0.1
			c0.4,0,0.7-0.2,0.9-0.6C15.2,20.2,15,19.7,14.5,19.5z M13.8,10.8c-1.3,0.6-2.4,1.6-3,3c-0.2,0.5,0,1,0.5,1.2
			c0.1,0.1,0.3,0.1,0.4,0.1c0.4,0,0.7-0.2,0.9-0.6c0.4-0.9,1.1-1.6,2-2c0.5-0.2,0.7-0.8,0.5-1.2C14.8,10.8,14.3,10.6,13.8,10.8z
			 M17.5,12.5c0.9,0.4,1.6,1.1,2,2c0.2,0.4,0.5,0.6,0.9,0.6c0.1,0,0.3,0,0.4-0.1c0.5-0.2,0.7-0.8,0.5-1.2c-0.6-1.3-1.6-2.4-2.9-2.9
			c-0.5-0.2-1,0-1.2,0.5C16.8,11.8,17,12.3,17.5,12.5z M25.5,17c-0.5-0.1-1,0.2-1.1,0.7c-0.7,3.3-3.3,5.9-6.6,6.6
			c-0.5,0.1-0.8,0.6-0.7,1.1c0.1,0.4,0.5,0.8,0.9,0.8c0.1,0,0.1,0,0.2,0c4.1-0.8,7.3-4,8.1-8.1C26.3,17.6,26,17.1,25.5,17z M6.5,17
			c-0.5,0.1-0.8,0.6-0.7,1.1c0.8,4.1,4,7.3,8.1,8.1c0.1,0,0.1,0,0.2,0c0.4,0,0.8-0.3,0.9-0.8c0.1-0.5-0.2-1-0.7-1.1
			c-3.3-0.7-5.9-3.3-6.6-6.6C7.6,17.2,7.1,16.9,6.5,17z M15,6.5c-0.1-0.5-0.6-0.8-1.1-0.7c-4.1,0.8-7.3,4-8.1,8.1
			c-0.1,0.5,0.2,1,0.7,1.1c0.1,0,0.1,0,0.2,0c0.4,0,0.8-0.3,0.9-0.8c0.7-3.3,3.3-5.9,6.6-6.6C14.8,7.6,15.1,7.1,15,6.5z M26.2,13.9
			c-0.8-4.1-4-7.3-8.1-8.1c-0.5-0.1-1,0.2-1.1,0.7c-0.1,0.5,0.2,1,0.7,1.1c3.4,0.7,6,3.3,6.6,6.6c0.1,0.4,0.5,0.8,0.9,0.8
			c0.1,0,0.1,0,0.2,0C26,14.9,26.3,14.4,26.2,13.9z"/>
	</g>
</g>
</svg>
