<?xml version="1.0" encoding="UTF-8" standalone="no"?>
<svg width="21px" height="21px" viewBox="0 0 21 21" version="1.1" xmlns="http://www.w3.org/2000/svg" xmlns:xlink="http://www.w3.org/1999/xlink">
    <!-- Generator: Sketch 3.8.3 (29802) - http://www.bohemiancoding.com/sketch -->
    <title>Shape</title>
    <desc>Created with Sketch.</desc>
    <defs></defs>
    <g id="学员管理" stroke="none" stroke-width="1" fill="none" fill-rule="evenodd">
        <g id="nav_btn_index" transform="translate(-37.000000, -11.000000)" fill="#FFFFFF">
            <g id="日程管理">
                <g transform="translate(37.000000, 11.000000)">
                    <path d="M19.069942,20.0148444 L0.944941952,20.0148444 C0.427381947,20.0148444 0.00744195117,19.5949244 0.00744195117,19.0773444 L0.00744195117,3.45174436 C0.00744195117,2.93418435 0.427381947,2.51424436 0.944941952,2.51424436 L2.81994195,2.51424436 L2.81994195,3.45174436 C2.81994195,4.65964436 3.79954196,5.63924435 5.00744195,5.63924435 C6.21532196,5.63924435 7.19494195,4.65964434 7.19494195,3.45174436 L7.19494195,2.51424436 L12.819942,2.51424436 L12.819942,3.45174436 C12.819942,4.65964436 13.799542,5.63924435 15.007442,5.63924435 C16.2153419,5.63924435 17.1949419,4.65964434 17.1949419,3.45174436 L17.1949419,2.51424436 L19.0699419,2.51424436 C19.5875219,2.51424436 20.007442,2.93418435 20.007442,3.45174436 L20.007442,19.0773244 C20.007442,19.5949244 19.587522,20.0148444 19.069942,20.0148444 L19.069942,20.0148444 Z M18.132442,7.51422438 L1.88244195,7.51422438 L1.88244195,18.1398044 L18.132442,18.1398044 L18.132442,7.51422438 L18.132442,7.51422438 Z M6.19336197,13.9876444 C6.35632197,13.7954044 6.54674196,13.6177444 6.76648196,13.4554244 C6.98558195,13.2930244 7.21690196,13.1276444 7.46106196,12.9598044 C7.58560197,12.8731244 7.71802196,12.7852244 7.85902197,12.6955044 C8.00000196,12.6058044 8.12878197,12.5075444 8.24476198,12.3989044 C8.36132199,12.2908644 8.45898198,12.1687844 8.53772197,12.0332644 C8.61586197,11.8978044 8.65554198,11.7439644 8.65554198,11.5706444 C8.65554198,11.2941444 8.57556199,11.0786844 8.41566197,10.9243244 C8.25576197,10.7698844 8.05130197,10.6929444 7.80228196,10.6929444 C7.63442196,10.6929444 7.49220197,10.7320244 7.37562196,10.8107844 C7.25904196,10.8895444 7.16566197,10.9920644 7.09546197,11.1190244 C7.02468196,11.2466044 6.97464196,11.3875844 6.94534197,11.5420044 C6.91542197,11.6963844 6.90018198,11.8496244 6.90018198,12.0009844 L5.79542197,12.0009844 C5.78446197,11.6762844 5.82230198,11.3741044 5.90894197,11.0952044 C5.99560198,10.8162844 6.12562197,10.5721244 6.29896197,10.3639844 C6.47230198,10.1552244 6.69018198,9.99288439 6.95326197,9.8763044 C7.21572196,9.75974439 7.51782196,9.70174441 7.85904196,9.70174441 C8.11904197,9.70174441 8.36686197,9.7420044 8.60244196,9.82320442 C8.83802196,9.90438442 9.04556195,10.0215644 9.22378196,10.1729244 C9.40262196,10.3242844 9.54482196,10.5116844 9.65102197,10.7332644 C9.75660196,10.9554244 9.80908197,11.2044644 9.80908197,11.4809644 C9.80908197,11.7684044 9.76330197,12.0143844 9.67116196,12.2200644 C9.57900196,12.4263244 9.45694195,12.6094444 9.30556196,12.7687844 C9.15360197,12.9286844 8.98148196,13.0733244 8.78920197,13.2033444 C8.59694198,13.3333844 8.40344197,13.4621444 8.20876198,13.5891044 C8.01344199,13.7166844 7.82362199,13.8534044 7.63992198,13.9998844 C7.45562197,14.1463444 7.29324197,14.3166444 7.15224198,14.5113244 L9.84144198,14.5113244 L9.84144198,15.5025244 L5.66540197,15.5025244 C5.66540197,15.1723844 5.71240197,14.8848444 5.80760197,14.6419844 C5.90222197,14.3977844 6.03100196,14.1799044 6.19336197,13.9876444 L6.19336197,13.9876444 Z M11.604722,14.4344044 C11.772582,14.5888644 11.986822,14.6657244 12.246822,14.6657244 C12.398182,14.6657244 12.534902,14.6346044 12.656982,14.5723244 C12.779062,14.5101044 12.881582,14.4289044 12.965802,14.3288044 C13.049442,14.2280844 13.114742,14.1121444 13.160522,13.9790644 C13.206262,13.8466644 13.230102,13.7099244 13.230102,13.5688844 C13.230102,13.4224244 13.208102,13.2844844 13.164782,13.1544844 C13.121462,13.0244644 13.056142,12.9109644 12.969462,12.8133044 C12.882782,12.7156244 12.780242,12.6399444 12.660642,12.5862444 C12.541622,12.5312844 12.403642,12.5044044 12.246822,12.5044044 C12.040542,12.5044044 11.872682,12.5410244 11.742682,12.6142644 C11.612642,12.6875244 11.491202,12.8022444 11.377062,12.9597444 L10.337022,12.9597444 L10.897962,9.81528439 L14.074802,9.81528439 L14.074802,10.7661844 L11.726822,10.7661844 L11.499162,12.0576844 L11.514982,12.0742044 C11.672482,11.9173244 11.840342,11.8050244 12.019162,11.7366644 C12.197982,11.6695044 12.401262,11.6353244 12.628302,11.6353244 C12.910302,11.6353244 13.159322,11.6865844 13.375962,11.7897644 C13.592642,11.8929244 13.775142,12.0308244 13.924722,12.2041644 C14.073622,12.3775044 14.187142,12.5820044 14.265902,12.8175844 C14.344022,13.0532044 14.383722,13.3040444 14.383722,13.5689044 C14.383722,13.8613044 14.326342,14.1341244 14.212822,14.3856044 C14.099262,14.6370844 13.946062,14.8555444 13.753842,15.0399044 C13.561582,15.2241844 13.338182,15.3658044 13.083682,15.4659044 C12.829182,15.5666244 12.558182,15.6136444 12.271302,15.6087644 C11.994822,15.6087644 11.730562,15.5721444 11.479082,15.4989044 C11.227002,15.4256444 11.003622,15.3133644 10.808302,15.1613444 C10.613582,15.0099844 10.457942,14.8213644 10.341342,14.5967644 C10.224782,14.3721643 10.163762,14.1109244 10.158222,13.8125044 L11.312442,13.8125044 C11.339242,14.0730844 11.436902,14.2799844 11.604722,14.4344044 L11.604722,14.4344044 Z M15.007442,4.38922437 C14.489862,4.38922437 14.069942,3.96928437 14.069942,3.45172436 L14.069942,0.951724355 C14.069942,0.434144356 14.489862,0.0142243535 15.007442,0.0142243535 C15.525022,0.0142243535 15.944942,0.434144356 15.944942,0.951724355 L15.944942,3.45172436 C15.944942,3.96932436 15.525022,4.38922437 15.007442,4.38922437 L15.007442,4.38922437 Z M5.00744197,4.38922437 C4.48986197,4.38922437 4.06994197,3.96928437 4.06994197,3.45172436 L4.06994197,0.951724355 C4.06994197,0.434144356 4.48986197,0.0142243535 5.00744197,0.0142243535 C5.52500198,0.0142243535 5.94494197,0.434144356 5.94494197,0.951724355 L5.94494197,3.45172436 C5.94494197,3.96932436 5.52504196,4.38922437 5.00744197,4.38922437 L5.00744197,4.38922437 Z" id="Shape"></path>
                </g>
            </g>
        </g>
    </g>
</svg>