<?xml version="1.0" encoding="UTF-8" standalone="no"?>
<svg width="48px" height="49px" viewBox="0 0 48 49" version="1.1" xmlns="http://www.w3.org/2000/svg" xmlns:xlink="http://www.w3.org/1999/xlink">
    <!-- Generator: Sketch 3.8.3 (29802) - http://www.bohemiancoding.com/sketch -->
    <title>btn_del</title>
    <desc>Created with Sketch.</desc>
    <defs></defs>
    <g id="线索管理_线索详情" stroke="none" stroke-width="1" fill="none" fill-rule="evenodd">
        <g id="问卷调查" transform="translate(-1709.000000, -899.000000)" fill="#FF3600">
            <g id="过往考试成绩（真实/模考）" transform="translate(223.000000, 694.000000)">
                <path d="M1486,209.36703 C1486,207.152427 1487.79405,205.357137 1490.00989,205.357137 L1529.99011,205.357137 C1532.20471,205.357137 1534,207.151189 1534,209.36703 L1534,249.347244 C1534,251.561846 1532.20595,253.357137 1529.99011,253.357137 L1490.00989,253.357137 C1487.79529,253.357137 1486,251.563084 1486,249.347244 L1486,209.36703 Z M1513.2142,237.571367 C1512.62174,237.571367 1512.14291,237.092532 1512.14291,236.500078 L1512.14291,224.714273 C1512.14291,224.121819 1512.62174,223.642777 1513.2142,223.642777 C1513.80665,223.642777 1514.28569,224.121819 1514.28569,224.714273 L1514.28569,236.500043 C1514.28573,237.092532 1513.80668,237.571367 1513.2142,237.571367 Z M1506.78577,237.571367 C1506.19311,237.571367 1505.71427,237.092532 1505.71427,236.500078 L1505.71427,224.714273 C1505.71427,224.121819 1506.19311,223.642777 1506.78577,223.642777 C1507.37822,223.642777 1507.85706,224.121819 1507.85706,224.714273 L1507.85706,236.500043 C1507.85706,237.092532 1507.37822,237.571367 1506.78577,237.571367 Z M1523.92847,219.357137 L1518.57133,219.357137 L1518.57133,217.214316 C1518.57133,215.442121 1517.14099,214 1515.38172,214 L1504.64274,214 C1502.87075,214 1501.42863,215.442121 1501.42863,217.214317 L1501.42863,219.357137 L1496.0715,219.357137 C1495.47883,219.357137 1495,219.835972 1495,220.428633 C1495,221.021088 1495.47884,221.499923 1496.0715,221.499923 L1523.92847,221.499923 C1524.52092,221.499923 1524.99997,221.021088 1524.99997,220.428633 C1525,219.835972 1524.52096,219.357137 1523.92847,219.357137 Z M1517.50428,244 L1502.50206,244 C1500.73003,244 1499.28791,242.557879 1499.28791,240.785684 L1499.28791,224.698254 C1499.28791,224.106764 1499.76792,223.626792 1500.35927,223.626792 C1500.95076,223.626792 1501.43073,224.106764 1501.43073,224.698254 L1501.43073,240.785684 C1501.43073,241.377173 1501.91174,241.85718 1502.50209,241.85718 L1517.50428,241.85718 C1518.09563,241.85718 1518.57564,241.377173 1518.57564,240.785684 L1518.57564,224.742075 C1518.57564,224.150723 1519.05465,223.670717 1519.6471,223.670717 C1520.23959,223.670717 1520.7186,224.150723 1520.7186,224.742075 L1520.7186,240.785684 C1520.7186,242.557879 1519.2763,244 1517.50428,244 Z M1503.57145,217.214316 C1503.57145,216.623929 1504.05242,216.14282 1504.64274,216.14282 L1515.38172,216.14282 C1515.969,216.14282 1516.42855,216.613215 1516.42855,217.214316 L1516.42855,219.357137 L1503.57145,219.357137 L1503.57145,217.214316 Z" id="btn_del"></path>
            </g>
        </g>
    </g>
</svg>