<?xml version="1.0" encoding="utf-8"?>
<!DOCTYPE svg PUBLIC "-//W3C//DTD SVG 1.1//EN" "http://www.w3.org/Graphics/SVG/1.1/DTD/svg11.dtd">
<svg version="1.1" id="图形" xmlns="http://www.w3.org/2000/svg" xmlns:xlink="http://www.w3.org/1999/xlink" x="0px" y="0px" width="1024px" height="1024px" viewBox="0 0 1024 1024" enable-background="new 0 0 1024 1024" xml:space="preserve">
  <path fill="#272636" d="M79.786673 527.954759c-5.370311-5.370311-8.691963-12.789281-8.691963-20.983917 0-8.194636 3.321652-15.613606 8.691963-20.983917L511.073396 54.648013l433.458179 433.509345c4.814656 4.814656 7.792477 11.466146 7.792477 18.813484s-2.977821 13.998829-7.792477 18.813484l-4.707209 4.706185c-5.556553 5.555529-13.231349 8.991792-21.707394 8.990768-8.478092 0-16.152888-3.435239-21.707394-8.990768L511.073396 145.103164 127.185192 529.042533c-5.925966 5.925966-14.112416 9.591449-23.154349 9.591449-9.042957 0-17.229406-3.665483-23.155373-9.591449L79.786673 527.954759z" transform="translate(0, 812) scale(1, -1)"/>
</svg>
