<?xml version="1.0" encoding="utf-8"?>
<!DOCTYPE svg PUBLIC "-//W3C//DTD SVG 1.1//EN" "http://www.w3.org/Graphics/SVG/1.1/DTD/svg11.dtd">
<svg version="1.1" id="图形" xmlns="http://www.w3.org/2000/svg" xmlns:xlink="http://www.w3.org/1999/xlink" x="0px" y="0px" width="1024px" height="1024px" viewBox="0 0 1024 1024" enable-background="new 0 0 1024 1024" xml:space="preserve">
  <path fill="#272636" d="M114.508 534.347h-21.333v-526.273c0-58.783 47.892-106.511 106.687-106.511h699.419v429.982c0 11.782-9.551 21.333-21.333 21.333-11.782 0-21.333-9.551-21.333-21.333v-408.649l21.333 21.333h-678.086c-35.264 0-64.021 28.658-64.021 63.845v504.939l-21.333-21.333h482.419c11.782 0 21.333 9.551 21.333 21.333s-9.551 21.333-21.333 21.333h-482.419zM458.619 228.182l-4.391-5.574-4.098-164.111 157.938 56.099 347.261 453.749-143.965 107.668-352.744-447.832zM802.471 629.385l110.029-82.288-4.165 30.049-330.308-431.598 9.801 7.137-122.738-43.596 28.467-20.635 3.146 125.995-4.568-12.668 339.87 431.487-29.536-3.884zM846.583 467.158l24.99 34.582-95.808 69.235-24.99-34.582 95.808-69.235z" transform="translate(0, 812) scale(1, -1)"/>
</svg>
