<?xml version="1.0" encoding="utf-8"?>
<!-- Generator: Adobe Illustrator 18.0.0, SVG Export Plug-In . SVG Version: 6.00 Build 0)  -->
<!DOCTYPE svg PUBLIC "-//W3C//DTD SVG 1.1//EN" "http://www.w3.org/Graphics/SVG/1.1/DTD/svg11.dtd">
<svg version="1.1" id="图层_1" xmlns="http://www.w3.org/2000/svg" xmlns:xlink="http://www.w3.org/1999/xlink" x="0px" y="0px"
	 width="32px" height="32px" viewBox="0 0 32 32" enable-background="new 0 0 32 32" xml:space="preserve">
<path fill="#919EB3" d="M13,10H8V2h5V10z M10,8h1V4h-1V8z"/>
<path fill="#919EB3" d="M24,10h-5V2h5V10z M21,8h1V4h-1V8z"/>
<path fill="#919EB3" d="M32,30H0V5h6v2H2v21h28V7h-4V5h6V30z"/>
<path fill="#919EB3" d="M15,5h2v2h-2V5z"/>
<path fill="#919EB3" d="M8,18h16v2H8V18z"/>
<path fill="#919EB3" d="M8,22h16v2H8V22z"/>
<path fill="#919EB3" d="M1,12h30v2H1V12z"/>
</svg>
