<?xml version="1.0" encoding="UTF-8" standalone="no"?>
<svg width="21px" height="19px" viewBox="0 0 21 19" version="1.1" xmlns="http://www.w3.org/2000/svg" xmlns:xlink="http://www.w3.org/1999/xlink">
    <!-- Generator: Sketch 3.8.3 (29802) - http://www.bohemiancoding.com/sketch -->
    <title>Shape</title>
    <desc>Created with Sketch.</desc>
    <defs></defs>
    <g id="学员管理" stroke="none" stroke-width="1" fill="none" fill-rule="evenodd">
        <g id="nav_btn_index" transform="translate(-39.000000, -408.000000)" fill="#FFFFFF">
            <g id="财务">
                <g transform="translate(0.000000, 396.000000)">
                    <path d="M56.5302459,12.1338559 L39.0302142,12.1338559 L39.0302142,28.2877123 L52.3671797,28.2877123 C52.9289406,29.3791776 54.1339447,30.1338559 55.5301572,30.1338559 C57.4632965,30.1338559 59.0302142,28.687291 59.0302142,26.9029155 C59.0301912,25.4393288 57.9759882,24.2035452 56.5302459,23.806414 L56.5302459,12.1338559 Z M40.4302278,13.4260674 L55.1302092,13.4260674 L55.1302092,17.3031024 L53.692,17.3031024 C53.5912356,16.572544 53.170439,16.0241746 52.6657412,16.0241746 C52.1605826,16.0241746 51.7398091,16.572544 51.6394592,17.3031024 L46.6921394,17.3031024 C46.5913749,16.572544 46.1703711,16.0241746 45.6656502,16.0241746 C45.1609293,16.0241746 44.7401327,16.572544 44.6393913,17.3031024 L43.8894399,17.3031024 C43.7853581,16.5796197 43.3672108,16.0374805 42.865623,16.0374805 C42.3642425,16.0374805 41.9460952,16.5796197 41.8420134,17.3031024 L40.4302278,17.3031024 L40.4302278,13.4260674 L40.4302278,13.4260674 Z M40.4302278,17.9492193 L41.8351252,17.9492193 C41.9256843,18.6994918 42.3518024,19.2684431 42.8655999,19.2684431 C43.3796278,19.2684431 43.805746,18.6995141 43.896305,17.9492193 L44.6360509,17.9492193 C44.7299273,18.6928611 45.1547323,19.2549369 45.6656502,19.2549369 C46.1765681,19.2549369 46.6013731,18.6928611 46.6954568,17.9492193 L51.6359115,17.9492193 C51.7300183,18.6928611 52.1543856,19.2549369 52.6657412,19.2549369 C53.176659,19.2549369 53.601441,18.6928611 53.6955478,17.9492193 L55.1301862,17.9492193 L55.1301862,22.4723489 L53.6796061,22.4723489 C53.58285,21.734915 53.1589204,21.1799371 52.6506749,21.1799371 C52.142867,21.1799371 51.7193981,21.734915 51.6221814,22.4723489 L50.8378356,22.4723489 C50.7472765,21.7220541 50.3211354,21.1529247 49.8071305,21.1529247 C49.2931256,21.1529247 48.8674222,21.7220541 48.7766558,22.4723489 L48.0775244,22.4723489 C47.9767599,21.7417905 47.5559634,21.1932431 47.0510351,21.1932431 C46.5463373,21.1932431 46.1253104,21.7417905 46.0245459,22.4723489 L40.4302278,22.4723489 L40.4302278,17.9492193 L40.4302278,17.9492193 Z M52.0301001,26.9028932 C52.0301001,26.9338885 52.0306761,26.964728 52.0316206,26.9955008 L40.4302278,26.9955008 L40.4302278,23.118043 L46.0214359,23.118043 C46.1153123,23.8623079 46.5401173,24.423961 47.0510352,24.423961 C47.5621834,24.423961 47.9867581,23.8623079 48.0808648,23.118043 L48.7835209,23.118043 C48.8878331,23.841726 49.3055427,24.3836649 49.8071305,24.3836649 C50.3087183,24.3836649 50.7268656,23.8417482 50.8307401,23.118043 L51.6221813,23.118043 C51.7193981,23.8554769 52.142867,24.4106773 52.6506748,24.4106773 C53.1589435,24.4106773 53.58285,23.8554769 53.679606,23.118043 L55.1302322,23.118043 L55.1302322,23.6935138 C53.3854908,23.8766596 52.0301001,25.2433443 52.0301001,26.9028932 L52.0301001,26.9028932 Z M56.820537,27.0812551 L56.820537,27.4418061 L55.8670524,27.4418061 L55.8670524,27.9391545 L56.820537,27.9391545 L56.820537,28.3048676 L55.8670524,28.3048676 L55.8670524,29.0285728 L55.3761077,29.0285728 L55.3761078,28.3048454 L54.387123,28.3048454 L54.387123,27.9391323 L55.3761078,27.9391323 L55.3761078,27.4417838 L54.387123,27.4417838 L54.387123,27.0812329 L55.23049,27.0812329 L54.2015588,25.4481623 L54.7550954,25.4481623 C55.2358115,26.2589124 55.5278995,26.7733939 55.6313133,26.9907614 L55.6415188,26.9907614 C55.6761436,26.9011577 55.7724619,26.7210825 55.9291376,26.4496902 L56.5177367,25.4481623 L57.0410947,25.4481623 L56.001958,27.0812329 L56.820537,27.0812329 L56.820537,27.0812551 Z" id="Shape"></path>
                </g>
            </g>
        </g>
    </g>
</svg>