<?xml version="1.0" encoding="UTF-8" standalone="no"?>
<svg width="42px" height="10px" viewBox="0 0 42 10" version="1.1" xmlns="http://www.w3.org/2000/svg" xmlns:xlink="http://www.w3.org/1999/xlink">
    <!-- Generator: Sketch 3.8.3 (29802) - http://www.bohemiancoding.com/sketch -->
    <title>Combined Shape</title>
    <desc>Created with Sketch.</desc>
    <defs></defs>
    <g id="规范" stroke="none" stroke-width="1" fill="none" fill-rule="evenodd">
        <g id="button" transform="translate(-503.000000, -1004.000000)" fill="#D0011B">
            <path d="M506.45269,1010.7084 C509.245833,1009.56928 516.725303,1008.2073 524.8453,1008.00705 C535.067506,1007.75496 543.431292,1009.31455 543.431292,1009.31455 C544.515176,1009.49027 544.49407,1009.54887 543.399408,1009.45691 C543.399408,1009.45691 533.995867,1008.4709 524.908061,1009.2046 C516.40161,1009.89136 512.500798,1010.39143 507.668736,1012.30959 C504.074752,1013.73628 503.321547,1014.28516 503.093939,1013.59537 C502.773777,1012.62509 503.230725,1012.0224 506.45269,1010.7084 Z M525.005268,1004.58468 C526.468783,1004.19612 528.103559,1004.16349 529.946621,1004.05695 C531.789683,1003.9504 534.863732,1004.0791 537.69675,1004.41373 C541.377045,1004.84843 544.376864,1005.6864 544.376864,1005.6864 C545.134935,1005.87907 545.113203,1005.96302 544.326924,1005.87695 C544.326924,1005.87695 539.959618,1005.35627 535.095225,1005.08691 C533.719736,1005.01075 530.995567,1005.01611 530.102337,1005.07272 C528.459889,1005.17682 526.681053,1005.40355 525.542559,1005.80652 C523.990947,1006.3557 523.116076,1006.34214 523.049322,1005.88817 C522.971394,1005.3582 523.541754,1004.97324 525.005268,1004.58468 Z" id="Combined-Shape"></path>
        </g>
    </g>
</svg>