<?xml version="1.0" encoding="UTF-8" standalone="no"?>
<svg width="16px" height="14px" viewBox="0 0 16 14" version="1.1" xmlns="http://www.w3.org/2000/svg" xmlns:xlink="http://www.w3.org/1999/xlink">
    <!-- Generator: Sketch 3.8.3 (29802) - http://www.bohemiancoding.com/sketch -->
    <title>icon-single-message</title>
    <desc>Created with Sketch.</desc>
    <defs></defs>
    <g id="PC规范" stroke="none" stroke-width="1" fill="none" fill-rule="evenodd">
        <g id="消息框" transform="translate(-46.000000, -113.000000)" fill="#94989E">
            <g transform="translate(18.000000, 20.000000)" id="消息-copy">
                <g transform="translate(1.000000, 91.000000)">
                    <path d="M29.717316,16 L29.717316,12.7524372 C27.9876492,11.5869093 27,9.91312557 27,8.1241556 C27,4.74952108 30.5304757,2 34.8690505,2 C39.2076099,2 42.738132,4.74613188 42.738132,8.1241556 C42.738132,11.5021638 39.2076099,14.244922 34.8690351,14.244922 C34.3557496,14.244922 33.8373263,14.2042362 33.3273991,14.1246442 L29.717316,16 L29.717316,16 Z M34.8690351,2.98597783 C31.1132474,2.98597783 28.0604937,5.29163788 28.0604937,8.12078188 C28.0604937,9.65562396 28.9634285,11.100691 30.5423301,12.0832487 L30.779512,12.2289532 L30.779512,14.3194689 L33.1478645,13.0895462 L33.3358798,13.1217359 C33.8424488,13.2098395 34.3591234,13.2538836 34.8707374,13.2538836 C38.6265251,13.2538836 41.6792942,10.9482081 41.6792942,8.11907954 C41.6776228,5.28995102 38.6231823,2.98597783 34.8690351,2.98597783 L34.8690351,2.98597783 Z" id="icon-single-message"></path>
                </g>
            </g>
        </g>
    </g>
</svg>