<?xml version="1.0" encoding="utf-8"?>
<!DOCTYPE svg PUBLIC "-//W3C//DTD SVG 1.1//EN" "http://www.w3.org/Graphics/SVG/1.1/DTD/svg11.dtd">
<svg version="1.1" id="图形" xmlns="http://www.w3.org/2000/svg" xmlns:xlink="http://www.w3.org/1999/xlink" x="0px" y="0px" width="1024px" height="1024px" viewBox="0 0 1024 1024" enable-background="new 0 0 1024 1024" xml:space="preserve">
  <path fill="#272636" d="M512-212c282.76736 0 512 229.23264 512 512s-229.23264 512-512 512-512-229.23264-512-512 229.23264-512 512-512zM512 715.98976c229.74464 0 416.01024-186.24512 416.01024-416.01024s-186.24512-416.01024-416.01024-416.01024-416.01024 186.24512-416.01024 416.01024 186.24512 416.01024 416.01024 416.01024zM512 213.24672c115.95776 0 226.22208 30.80192 320 84.91008-14.58176-178.44224-153.12896-318.1568-320-318.1568s-305.41824 139.8784-320 318.30016c93.77792-54.10816 204.04224-85.07392 320-85.07392zM256 459.98976c0 53.02272 28.65152 96.01024 64 96.01024s64-42.98752 64-96.01024c0-53.02272-28.65152-96.01024-64-96.01024s-64 42.98752-64 96.01024zM640 459.98976c0 53.02272 28.65152 96.01024 64 96.01024s64-42.98752 64-96.01024c0-53.02272-28.65152-96.01024-64-96.01024s-64 42.98752-64 96.01024z" transform="translate(0, 812) scale(1, -1)"/>
</svg>
