<?xml version="1.0" encoding="UTF-8" standalone="no"?>
<svg width="19px" height="20px" viewBox="0 0 19 20" version="1.1" xmlns="http://www.w3.org/2000/svg" xmlns:xlink="http://www.w3.org/1999/xlink">
    <!-- Generator: Sketch 3.8.3 (29802) - http://www.bohemiancoding.com/sketch -->
    <title>icon-nav-history</title>
    <desc>Created with Sketch.</desc>
    <defs></defs>
    <g id="PC" stroke="none" stroke-width="1" fill="none" fill-rule="evenodd">
        <g id="左导" transform="translate(-41.000000, -539.000000)" fill="#FFFFFF">
            <g id="系统设置-copy" transform="translate(0.000000, 527.000000)">
                <path d="M52.1554523,30.4390058 L45.2366417,30.4390058 C44.2549452,30.4390058 43.4561456,29.6402275 43.4561456,28.6585097 L43.4561456,15.341469 C43.4561456,14.3597725 44.2549239,13.5609729 45.2366417,13.5609729 L55.480529,13.5609729 C56.4622255,13.5609729 57.2610251,14.3597512 57.2610251,15.341469 L57.2610251,23.6798697 C57.2610251,24.1108907 57.6104906,24.4603562 58.0415115,24.4603562 C58.4725325,24.4603562 58.821998,24.1108907 58.821998,23.6798697 L58.821998,15.341469 C58.821998,13.4988618 57.3231362,12 55.480529,12 L45.2366417,12 C43.3940345,12 41.8951727,13.4988618 41.8951727,15.341469 L41.8951727,28.658531 C41.8951727,30.5011382 43.3940345,32 45.2366417,32 L52.1554523,32 C52.5864732,32 52.9359387,31.6505345 52.9359387,31.2195135 C52.9359387,30.7884713 52.5864732,30.4390058 52.1554523,30.4390058 L52.1554523,30.4390058 Z M54.4348006,16.8658582 L46.2396821,16.8658582 C45.8086612,16.8658582 45.4591957,17.2153237 45.4591957,17.6463447 C45.4591957,18.0773657 45.8086612,18.4268311 46.2396821,18.4268311 L54.4348006,18.4268311 C54.8658215,18.4268311 55.215287,18.0773657 55.215287,17.6463447 C55.215287,17.2153237 54.8658215,16.8658582 54.4348006,16.8658582 L54.4348006,16.8658582 Z M55.215287,21.8719466 C55.215287,21.4409257 54.8658215,21.0914602 54.4348006,21.0914602 L46.2396821,21.0914602 C45.8086612,21.0914602 45.4591957,21.4409256 45.4591957,21.8719466 C45.4591957,22.3029676 45.8086612,22.6524331 46.2396821,22.6524331 L54.4348006,22.6524331 C54.8658215,22.6524331 55.215287,22.3029676 55.215287,21.8719466 L55.215287,21.8719466 Z M46.2396821,25.3170621 C45.8086612,25.3170621 45.4591957,25.6665276 45.4591957,26.0975485 C45.4591957,26.5285695 45.8086612,26.878035 46.2396821,26.878035 L49.5689423,26.878035 C49.9999633,26.878035 50.3494288,26.5285695 50.3494288,26.0975485 C50.3494288,25.6665276 49.9999633,25.3170621 49.5689423,25.3170621 L46.2396821,25.3170621 L46.2396821,25.3170621 Z M55.7789397,24.5182838 C53.8303809,24.5182838 52.2453959,26.1036529 52.2453959,28.0521904 C52.2453959,30.0007279 53.8303809,31.5857341 55.7789397,31.5857341 C57.7274985,31.5857341 59.3128462,30.0007492 59.3128462,28.0521904 C59.3128462,26.1036316 57.7274771,24.5182838 55.7789397,24.5182838 L55.7789397,24.5182838 Z M57.151637,28.5994508 L55.0887597,28.5994508 L55.0887597,26.2968589 C55.0887597,25.9950333 55.3334261,25.7503669 55.6352518,25.7503669 C55.9370774,25.7503669 56.1817438,25.9950333 56.1817438,26.2968589 L56.1817438,27.5064667 L57.151637,27.5064667 C57.4534627,27.5064667 57.6981291,27.7511331 57.6981291,28.0529588 C57.6981291,28.3547844 57.453484,28.5994508 57.151637,28.5994508 L57.151637,28.5994508 Z" id="icon-nav-history"></path>
            </g>
        </g>
    </g>
</svg>