<?xml version="1.0" encoding="utf-8"?>
<!DOCTYPE svg PUBLIC "-//W3C//DTD SVG 1.1//EN" "http://www.w3.org/Graphics/SVG/1.1/DTD/svg11.dtd">
<svg version="1.1" id="图形" xmlns="http://www.w3.org/2000/svg" xmlns:xlink="http://www.w3.org/1999/xlink" x="0px" y="0px" width="1024px" height="1024px" viewBox="0 0 1024 1024" enable-background="new 0 0 1024 1024" xml:space="preserve">
  <path fill="#272636" d="M540.032-34.72l0-57.28 28.032 0c15.488 0 28.032-12.48 28.032-28.032S583.488-148 568-148L540.032-148 483.968-148 456-148c-15.488 0-28.032 12.48-28.032 28.032s12.544 28.032 28.032 28.032l28.032 0L484.032-34.72c-138.24 12.48-255.296 116.352-280 250.752l56 0C285.504 103.84 392.064 20 512 20c119.872 0 226.496 83.84 252.032 195.968l56 0C795.264 81.632 678.272-22.24 540.032-34.72zM512 76c-108.224 0-195.968 87.744-195.968 195.968L316.032 552.032C316.032 660.256 403.776 748 512 748s195.968-87.744 195.968-195.968l0-280C707.968 163.744 620.224 76 512 76zM652.032 552.032c0 77.312-62.656 140.032-140.032 140.032S371.968 629.344 371.968 552.032l0-280c0-77.312 62.656-140.032 140.032-140.032s140.032 62.656 140.032 140.032L652.032 552.032z" transform="translate(0, 812) scale(1, -1)"/>
</svg>
