<?xml version="1.0" encoding="utf-8"?>
<!DOCTYPE svg PUBLIC "-//W3C//DTD SVG 1.1//EN" "http://www.w3.org/Graphics/SVG/1.1/DTD/svg11.dtd">
<svg version="1.1" id="图形" xmlns="http://www.w3.org/2000/svg" xmlns:xlink="http://www.w3.org/1999/xlink" x="0px" y="0px" width="1024px" height="1024px" viewBox="0 0 1024 1024" enable-background="new 0 0 1024 1024" xml:space="preserve">
  <path fill="#272636" d="M568.752 629.376l6.816-32.416 261.12 59.744-257.696-259.424c-51.2 46.08-117.76 73.376-192.864 73.376-160.416 0-290.144-129.696-290.144-290.144s129.696-290.144 290.144-290.144c160.416 0 290.144 129.696 290.144 290.144 0 73.376-27.296 141.664-73.376 192.864l259.424 259.424-61.44-261.12 32.416-8.544 81.92 346.464-346.464-80.224zM386.16-75.456c-141.664 0-256 114.336-256 256s114.336 256 256 256c141.664 0 256-114.336 256-256s-114.336-256-256-256z" transform="translate(0, 812) scale(1, -1)"/>
</svg>
