<?xml version="1.0" encoding="UTF-8" standalone="no"?>
<svg width="24px" height="24px" viewBox="0 0 24 24" version="1.1" xmlns="http://www.w3.org/2000/svg" xmlns:xlink="http://www.w3.org/1999/xlink">
    <!-- Generator: Sketch 3.8.3 (29802) - http://www.bohemiancoding.com/sketch -->
    <title>Shape</title>
    <desc>Created with Sketch.</desc>
    <defs></defs>
    <g id="学员管理" stroke="none" stroke-width="1" fill="none" fill-rule="evenodd">
        <g id="学生签到" transform="translate(-1645.000000, -68.000000)" fill="#FFFFFF">
            <g id="FeiduTempalte">
                <g id="快捷菜单-copy-2" transform="translate(1645.000000, 68.000000)">
                    <path d="M8.3614589,10.9062507 L2.54479184,10.9062507 C1.13890795,10.9062507 0,9.76734278 0,8.3614589 L0,2.54479184 C0,1.13890795 1.13890795,0 2.54479184,0 L8.36429907,0 C9.77018295,0 10.9090909,1.13890795 10.9090909,2.54479184 L10.9090909,8.36429907 C10.9062507,9.76734278 9.76734278,10.9062507 8.3614589,10.9062507 L8.3614589,10.9062507 Z M7.78007621,9.81590968 L3.12674256,9.81590968 C2.00203545,9.81590968 1.09090909,8.90478332 1.09090909,7.78007621 L1.09090909,3.12674256 C1.09090909,2.00203545 2.00203545,1.09090909 3.12674256,1.09090909 L7.78234835,1.09090909 C8.90705545,1.09090909 9.81818182,2.00203545 9.81818182,3.12674256 L9.81818182,7.78234835 C9.81590968,8.90478332 8.90478332,9.81590968 7.78007621,9.81590968 L7.78007621,9.81590968 Z M21.452368,10.9090909 L15.6357009,10.9090909 C14.229817,10.9090909 13.0909091,9.76988636 13.0909091,8.36363636 L13.0909091,2.54545455 C13.0909091,1.13920455 14.229817,0 15.6357009,0 L21.4552082,0 C22.861092,0 24,1.13920455 24,2.54545455 L24,8.36647727 C23.9971598,9.76988636 22.8582519,10.9090909 21.452368,10.9090909 L21.452368,10.9090909 Z M20.8709853,9.81818182 L16.2176517,9.81818182 C15.0929445,9.81818182 14.1818182,8.90681818 14.1818182,7.78181818 L14.1818182,3.12727273 C14.1818182,2.00227273 15.0929445,1.09090909 16.2176517,1.09090909 L20.8732574,1.09090909 C21.9979645,1.09090909 22.9090909,2.00227273 22.9090909,3.12727273 L22.9090909,7.78409091 C22.9068188,8.90681818 21.9956924,9.81818182 20.8709853,9.81818182 L20.8709853,9.81818182 Z M8.3614589,23.9971598 L2.54479184,23.9971598 C1.13890795,23.9971598 0,22.8582519 0,21.452368 L0,15.6357009 C0,14.229817 1.13890795,13.0909091 2.54479184,13.0909091 L8.36429907,13.0909091 C9.77018295,13.0909091 10.9090909,14.229817 10.9090909,15.6357009 L10.9090909,21.4552082 C10.9062507,22.8582519 9.76734278,23.9971598 8.3614589,23.9971598 L8.3614589,23.9971598 Z M7.78007621,22.9068188 L3.12674256,22.9068188 C2.00203545,22.9068188 1.09090909,21.9956924 1.09090909,20.8709853 L1.09090909,16.2176517 C1.09090909,15.0929445 2.00203545,14.1818182 3.12674256,14.1818182 L7.78234835,14.1818182 C8.90705545,14.1818182 9.81818182,15.0929445 9.81818182,16.2176517 L9.81818182,20.8732574 C9.81590968,21.9956924 8.90478332,22.9068188 7.78007621,22.9068188 L7.78007621,22.9068188 Z M21.452368,23.9971598 L15.6357009,23.9971598 C14.229817,23.9971598 13.0909091,22.8582519 13.0909091,21.452368 L13.0909091,15.6357009 C13.0909091,14.229817 14.229817,13.0909091 15.6357009,13.0909091 L21.4552082,13.0909091 C22.861092,13.0909091 24,14.229817 24,15.6357009 L24,21.4552082 C23.9971598,22.8582519 22.8582519,23.9971598 21.452368,23.9971598 L21.452368,23.9971598 Z M20.8709853,22.9068188 L16.2176517,22.9068188 C15.0929445,22.9068188 14.1818182,21.9956924 14.1818182,20.8709853 L14.1818182,16.2176517 C14.1818182,15.0929445 15.0929445,14.1818182 16.2176517,14.1818182 L20.8732574,14.1818182 C21.9979645,14.1818182 22.9090909,15.0929445 22.9090909,16.2176517 L22.9090909,20.8732574 C22.9068188,21.9956924 21.9956924,22.9068188 20.8709853,22.9068188 L20.8709853,22.9068188 Z" id="Shape"></path>
                </g>
            </g>
        </g>
    </g>
</svg>