<?xml version="1.0" encoding="UTF-8" standalone="no"?>
<svg width="21px" height="24px" viewBox="0 0 21 24" version="1.1" xmlns="http://www.w3.org/2000/svg" xmlns:xlink="http://www.w3.org/1999/xlink">
    <!-- Generator: Sketch 3.8.3 (29802) - http://www.bohemiancoding.com/sketch -->
    <title>Shape</title>
    <desc>Created with Sketch.</desc>
    <defs></defs>
    <g id="学员管理" stroke="none" stroke-width="1" fill="none" fill-rule="evenodd">
        <g id="学生签到" transform="translate(-1709.000000, -68.000000)" fill="#FFFFFF">
            <g id="FeiduTempalte">
                <g id="快捷菜单-copy-2" transform="translate(1645.000000, 68.000000)">
                    <path d="M83.6569159,16.5879783 L81.7107621,14.1159892 L81.7107621,13.0367117 L81.7107621,12.6478761 L81.7107621,9.49727273 C81.7107621,7.38898537 80.9599928,5.43297963 79.5953775,3.99295727 C78.7892236,3.13988448 77.8184544,2.51153797 76.7092236,2.11974543 C76.6076852,1.55497282 76.3153775,1.03898944 75.8753775,0.65311077 C74.8815313,-0.217703582 73.2353775,-0.217703582 72.2446082,0.65311077 C71.7984544,1.04194636 71.5061467,1.55792974 71.4061467,2.12122391 C70.2984544,2.51005953 69.3276851,3.13840604 68.5215313,3.99295729 C67.1584544,5.43593658 66.4061467,7.39194231 66.4061467,9.49579427 L66.4123005,14.1071185 L64.4799928,16.5643229 C64.2076852,16.8437523 64.0584544,17.2059756 64.0584544,17.5859404 L64.0584544,18.7879304 C64.0584544,19.6114339 64.7553774,20.2796989 65.6107621,20.2796989 L82.5076851,20.2796989 C83.3646082,20.2796989 84.0584544,19.6114339 84.0584544,18.7879304 L84.0584544,17.5859404 C84.0584544,17.2059756 83.9092236,16.8437523 83.6569159,16.5879783 L83.6569159,16.5879783 L83.6569159,16.5879783 Z M74.0693135,1.63547161 C73.2479502,1.63547159 72.6405357,1.79593499 72.3803976,1.83981528 C72.5932362,1.22041773 73.2816292,0.749870691 74.0693135,0.760657818 C74.8569978,0.771444945 75.621825,1.30162936 75.7913097,1.83981528 C75.7913097,1.83981528 74.8906768,1.63547163 74.0693135,1.63547161 Z M65.1517033,19.2233578 L65.1640105,17.5948109 L67.0963182,15.1376064 C67.3655489,14.858177 67.5163182,14.4974322 67.5163182,14.1159889 L67.5163182,9.49579397 C67.5163182,7.76599299 68.0455991,6.17073238 69.1440606,5.00570404 C69.688676,4.4291037 70.5589589,3.63038317 71.2804973,3.32286299 C72.795882,2.67529646 75.4078262,2.67529644 76.9201339,3.32286297 C77.6432108,3.63334007 78.4773755,4.43206064 79.0204525,5.00570404 C80.1204525,6.1707324 80.620388,7.77486335 80.620388,9.50614279 L80.620388,14.1248593 C80.620388,14.5077811 80.7696187,14.8729613 81.0219264,15.1242999 L82.9696187,17.5948105 L82.9696192,19.2159651 L65.1517033,19.2233578 Z M75.9408912,21.2663231 C75.8239681,21.5280109 75.3619503,21.9689136 75.1373349,22.1655491 C74.3588734,22.8471203 73.0711811,22.8456418 72.2973349,22.1670276 C72.074258,21.9689136 71.6629858,21.5265325 71.5460628,21.2663231 L70.0937332,21.2663231 C70.2614255,21.9582434 70.6383486,22.5895469 71.1906563,23.0744826 C71.8660409,23.6717813 72.7460409,24 73.6691178,24 C74.5906563,24 75.4706563,23.6717813 76.1445025,23.0774395 C76.6968101,22.5925038 77.0737332,21.9612004 77.2414255,21.2678015 L75.5968101,21.2663231 L75.9408912,21.2663231 Z" id="Shape"></path>
                </g>
            </g>
        </g>
    </g>
</svg>