<?xml version="1.0" encoding="utf-8"?>
<!DOCTYPE svg PUBLIC "-//W3C//DTD SVG 1.1//EN" "http://www.w3.org/Graphics/SVG/1.1/DTD/svg11.dtd">
<svg version="1.1" id="图形" xmlns="http://www.w3.org/2000/svg" xmlns:xlink="http://www.w3.org/1999/xlink" x="0px" y="0px" width="1024px" height="1024px" viewBox="0 0 1024 1024" enable-background="new 0 0 1024 1024" xml:space="preserve">
  <path fill="#272636" d="M512 748c-87.4 0-158-75-158-167L354 272c0-92 70.6-167 158-167 87.4 0 158 75 158 167L670 581C670 673 599.4 748 512 748zM638 272c0-74.4-56.6-135-126-135-69.4 0-126 60.6-126 135L386 581c0 74.4 56.6 135 126 135 69.4 0 126-60.6 126-135L638 272zM734 428l0-159.4c0-120.4-99.6-218.4-220-218.4-120.4 0-220 98-220 218.4L294 428l-38 0 0-159.4c0-134.4 106-245.2 240-255L496-112l-146 0 0-36 322 0 0 36-138 0 0 125.6c132 9.8 234 120.6 234 255L768 428 734 428z" transform="translate(0, 812) scale(1, -1)"/>
</svg>
