<?xml version="1.0" encoding="utf-8"?>
<!DOCTYPE svg PUBLIC "-//W3C//DTD SVG 1.1//EN" "http://www.w3.org/Graphics/SVG/1.1/DTD/svg11.dtd">
<svg version="1.1" id="图形" xmlns="http://www.w3.org/2000/svg" xmlns:xlink="http://www.w3.org/1999/xlink" x="0px" y="0px" width="1024px" height="1024px" viewBox="0 0 1024 1024" enable-background="new 0 0 1024 1024" xml:space="preserve">
  <path fill="#272636" d="M353.508289 401.94074l319.271534 0 0-31.927153-319.271534 0 0 31.927153ZM353.508289 266.252385l319.271534 0 0-31.927153-319.271534 0 0 31.927153ZM353.508289 130.559936l319.271534 0 0-31.918967-319.271534 0 0 31.918967ZM712.024639 625.433884l0 29.91124c0 22.004153-17.904789 39.908942-39.908942 39.908942L354.169345 695.254066c-22.004153 0-39.908942-17.904789-39.908942-39.908942l0-29.91124L209.836099 625.433884 209.836099-29.068667c0-35.263132 28.590152-63.854307 63.854307-63.854307l478.907301 0c35.263132 0 63.854307 28.591175 63.854307 63.854307L816.452014 625.433884 712.024639 625.433884zM362.151134 647.363336l301.982776 0 0-71.836095L362.151134 575.527241 362.151134 647.363336zM768.561283-13.105091c0-17.631566-14.295588-31.927153-31.927153-31.927153l-446.980147 0c-17.632589 0-31.927153 14.295588-31.927153 31.927153L257.726829 577.543154l56.534598 0 0-9.997702c0-22.004153 17.904789-39.908942 39.908942-39.908942l317.946352 0c22.004153 0 39.908942 17.904789 39.908942 39.908942l0 9.997702 56.535621 0L768.561283-13.105091z" transform="translate(0, 812) scale(1, -1)"/>
</svg>
