<?xml version="1.0" encoding="UTF-8" standalone="no"?>
<svg width="14px" height="16px" viewBox="0 0 14 16" version="1.1" xmlns="http://www.w3.org/2000/svg" xmlns:xlink="http://www.w3.org/1999/xlink">
    <!-- Generator: sketchtool 3.8.3 (29802) - http://www.bohemiancoding.com/sketch -->
    <title>CADA65FE-AA08-4491-8CDB-2AE6A9E88E40</title>
    <desc>Created with sketchtool.</desc>
    <defs></defs>
    <g id="登录" stroke="none" stroke-width="1" fill="none" fill-rule="evenodd">
        <g id="登录-其它样式" transform="translate(-1181.000000, -620.000000)" fill="#94989E">
            <g id="Group-3-Copy-2" transform="translate(1070.000000, 159.000000)">
                <path d="M123.25,466.333333 L122.375,466.333333 L122.375,464.809524 C122.375,462.714286 120.40625,461 118,461 C115.59375,461 113.625,462.714286 113.625,464.809524 L113.625,466.333333 L112.75,466.333333 C111.787413,466.333333 111,467.018971 111,467.857143 L111,475.47619 C111,476.314362 111.787413,477 112.75,477 L123.25,477 C124.212588,477 125,476.314362 125,475.47619 L125,467.857143 C125,467.018971 124.212588,466.333333 123.25,466.333333 L123.25,466.333333 Z M118,473.266667 C117.037413,473.266667 116.25,472.581029 116.25,471.742857 C116.25,470.904686 117.037413,470.219048 118,470.219048 C118.962587,470.219048 119.75,470.904686 119.75,471.742857 C119.75,472.581029 118.962587,473.266667 118,473.266667 L118,473.266667 Z M120.712587,466.333333 L115.287412,466.333333 L115.287412,464.809524 C115.287412,463.514133 116.512544,462.447543 118,462.447543 C119.487675,462.447543 120.712587,463.514133 120.712587,464.809524 L120.712587,466.333333 L120.712587,466.333333 Z" id="icon-password"></path>
            </g>
        </g>
    </g>
</svg>