<?xml version="1.0" encoding="utf-8"?>
<!-- Generated by IcoMoon.io -->
<!DOCTYPE svg PUBLIC "-//W3C//DTD SVG 1.1//EN" "http://www.w3.org/Graphics/SVG/1.1/DTD/svg11.dtd">
<svg version="1.1" xmlns="http://www.w3.org/2000/svg" xmlns:xlink="http://www.w3.org/1999/xlink" width="768" height="768" viewBox="0 0 768 768">
<g id="icomoon-ignore">
</g>
<path d="M384 32q71.75 0 136.875 27.875t112.25 75 75 112.25 27.875 136.875-27.875 136.875-75 112.25-112.25 75-136.875 27.875-136.875-27.875-112.25-75-75-112.25-27.875-136.875 27.875-136.875 75-112.25 112.25-75 136.875-27.875zM352 416v-318.25q-53.25 6-100.625 30.875t-81.5 62.625-54 88-19.875 104.75q0 58.5 22.875 111.875t61.375 91.875 91.875 61.375 111.875 22.875q54.5 0 104.75-19.875t88-54 62.625-81.5 30.875-100.625h-318.25zM416 97.75v254.25h254.25q-5.5-49.5-27.25-93.875t-55.25-77.875-77.875-55.25-93.875-27.25z"></path>
</svg>
