<?xml version="1.0" encoding="utf-8"?>
<!-- Generated by IcoMoon.io -->
<!DOCTYPE svg PUBLIC "-//W3C//DTD SVG 1.1//EN" "http://www.w3.org/Graphics/SVG/1.1/DTD/svg11.dtd">
<svg version="1.1" xmlns="http://www.w3.org/2000/svg" xmlns:xlink="http://www.w3.org/1999/xlink" width="1024" height="1024" viewBox="0 0 1024 1024"><g id="icomoon-ignore">
</g>
<path d="M512 0c-282.795 0-512 229.205-512 512s229.205 512 512 512c282.795 0 512-229.205 512-512s-229.205-512-512-512zM512 967.111c-250.937 0-455.111-204.174-455.111-455.111s204.174-455.111 455.111-455.111c250.937 0 455.111 204.174 455.111 455.111s-204.174 455.111-455.111 455.111z"></path>
<path d="M723.228 467.172l-50.574-29.412c-84.878-49.323-244.622-142.165-254.919-148.082-33.166-19.172-76.402 6.542-76.402 43.804v355.612c0 28.274 22.073 50.46 50.233 50.46 8.761 0 17.465-2.276 25.145-6.542 20.764-11.662 292.807-169.984 306.745-178.29 15.758-9.387 25.145-25.884 25.031-44.032 0-18.034-9.444-34.304-25.259-43.52zM398.222 678.059v-333.938c36.466 21.163 170.61 99.1 245.817 142.848l41.472 24.064c-45.34 26.51-239.844 139.662-287.289 167.026z"></path>
</svg>
