<?xml version="1.0" encoding="utf-8"?>
<!DOCTYPE svg PUBLIC "-//W3C//DTD SVG 1.1//EN" "http://www.w3.org/Graphics/SVG/1.1/DTD/svg11.dtd">
<svg version="1.1" id="图形" xmlns="http://www.w3.org/2000/svg" xmlns:xlink="http://www.w3.org/1999/xlink" x="0px" y="0px" width="1024px" height="1024px" viewBox="0 0 1024 1024" enable-background="new 0 0 1024 1024" xml:space="preserve">
  <path fill="#272636" d="M512 726.656q17.664 0 30.176-12.512t12.512-30.176l0-341.344 341.344 0q17.664 0 30.176-12.512t12.512-30.176-12.512-30.176-30.176-12.512l-341.344 0 0-341.344q0-17.664-12.512-30.176t-30.176-12.512-30.176 12.512-12.512 30.176l0 341.344-341.344 0q-17.664 0-30.176 12.512t-12.512 30.176 12.512 30.176 30.176 12.512l341.344 0 0 341.344q0 17.664 12.512 30.176t30.176 12.512z" transform="translate(0, 812) scale(1, -1)"/>
</svg>
