<?xml version="1.0" encoding="utf-8"?>
<!DOCTYPE svg PUBLIC "-//W3C//DTD SVG 1.1//EN" "http://www.w3.org/Graphics/SVG/1.1/DTD/svg11.dtd">
<svg version="1.1" id="图形" xmlns="http://www.w3.org/2000/svg" xmlns:xlink="http://www.w3.org/1999/xlink" x="0px" y="0px" width="1024px" height="1024px" viewBox="0 0 1024 1024" enable-background="new 0 0 1024 1024" xml:space="preserve">
  <path fill="#272636" d="M358.494349-120.506193 704.263373 283.232105c1.181919 1.358951 2.199085 2.817162 3.048429 4.349051 0.053212 0.095167 0.100284 0.191358 0.151449 0.286526 0.143263 0.265036 0.284479 0.531096 0.417509 0.799202 0.092098 0.185218 0.174985 0.37146 0.261966 0.558725 0.083911 0.182149 0.171915 0.363274 0.251733 0.547469 0.110517 0.25378 0.211824 0.509606 0.314155 0.76441 0.048095 0.121773 0.100284 0.2415 0.146333 0.363274 0.113587 0.300852 0.220011 0.602727 0.321318 0.906649 0.027629 0.081864 0.058328 0.161682 0.083911 0.243547 0.107447 0.328481 0.205685 0.660032 0.298805 0.99056 0.017396 0.061398 0.036839 0.121773 0.053212 0.183172 0.092098 0.336668 0.174985 0.675382 0.25378 1.01512 0.014326 0.061398 0.029676 0.12075 0.042979 0.182149 0.072655 0.329505 0.137123 0.661056 0.197498 0.992607 0.013303 0.074701 0.028653 0.149403 0.041956 0.224104 0.053212 0.311085 0.098237 0.621147 0.140193 0.933255 0.013303 0.100284 0.028653 0.199545 0.041956 0.300852 0.033769 0.279363 0.060375 0.560772 0.084934 0.841158 0.01228 0.1361 0.026606 0.271176 0.036839 0.405229 0.017396 0.242524 0.027629 0.48607 0.038886 0.728594 0.008186 0.176009 0.01842 0.352017 0.021489 0.528026 0.005117 0.201591 0.004093 0.404206 0.004093 0.606821 0 0.216941 0.001023 0.433882-0.004093 0.650823-0.004093 0.159636-0.014326 0.320295-0.020466 0.480954-0.01228 0.258896-0.022513 0.517793-0.041956 0.775666-0.00921 0.118704-0.021489 0.237407-0.031722 0.356111-0.025583 0.297782-0.054235 0.594541-0.090051 0.8913-0.011256 0.084934-0.023536 0.169869-0.035816 0.254803-0.044002 0.326435-0.090051 0.652869-0.146333 0.977257-0.011256 0.061398-0.023536 0.12075-0.034792 0.182149-0.062422 0.345877-0.128937 0.690732-0.205685 1.034563-0.011256 0.047072-0.022513 0.094144-0.032746 0.140193-0.080841 0.353041-0.167822 0.704035-0.264013 1.052982-0.014326 0.052189-0.029676 0.104377-0.044002 0.155543-0.096191 0.339738-0.196475 0.679475-0.306992 1.016143-0.023536 0.073678-0.051165 0.147356-0.075725 0.220011-0.105401 0.312108-0.212848 0.62217-0.329505 0.930185-0.042979 0.11461-0.092098 0.227174-0.137123 0.340761-0.104377 0.26299-0.208754 0.527003-0.321318 0.786922-0.077771 0.178055-0.163729 0.354064-0.245593 0.531096-0.088004 0.192382-0.173962 0.384763-0.26913 0.575098-0.132006 0.267083-0.273223 0.531096-0.414439 0.794086-0.052189 0.096191-0.100284 0.193405-0.153496 0.288572-0.849344 1.531889-1.865487 2.989077-3.047406 4.348028L358.494349 720.506193c-9.190313 10.731412-25.341155 11.980869-36.071543 2.790556-5.90857-5.060249-8.94165-12.228509-8.94165-19.442818 0-5.887081 2.022053-11.805884 6.152117-16.628726l331.62591-387.224182L319.633273-87.224182c-4.130064-4.822842-6.152117-10.739599-6.152117-16.628726 0-7.213285 3.034103-14.383592 8.94165-19.442818C333.153194-132.487062 349.304036-131.237605 358.494349-120.506193z" transform="translate(0, 812) scale(1, -1)"/>
</svg>
