<?xml version="1.0" encoding="UTF-8" standalone="no"?>
<svg width="21px" height="21px" viewBox="0 0 21 21" version="1.1" xmlns="http://www.w3.org/2000/svg" xmlns:xlink="http://www.w3.org/1999/xlink">
    <!-- Generator: Sketch 3.8.3 (29802) - http://www.bohemiancoding.com/sketch -->
    <title>Shape</title>
    <desc>Created with Sketch.</desc>
    <defs></defs>
    <g id="学员管理" stroke="none" stroke-width="1" fill="none" fill-rule="evenodd">
        <g id="nav_btn_index" transform="translate(-40.000000, -540.000000)" fill="#FFFFFF">
            <g id="系统设置">
                <g transform="translate(0.000000, 528.000000)">
                    <path d="M60.0159302,24.7848191 C60.0445722,24.9566818 60.0374288,25.1643159 59.9944543,25.4078127 C59.951594,25.6513324 59.8801143,25.898395 59.7799927,26.1489319 C59.6799395,26.3996059 59.558342,26.625137 59.41536,26.8256168 C59.2723779,27.0261652 59.1150635,27.1693878 58.9434622,27.2553306 C58.7719294,27.3412734 58.6217811,27.384199 58.4929946,27.384199 C58.3643222,27.384199 58.2213401,27.3555134 58.0640485,27.2982334 C57.9210665,27.2553306 57.7422761,27.2159021 57.5277917,27.1801307 C57.31333,27.1442907 57.0952624,27.1371136 56.8736118,27.1586221 C56.6519611,27.1801307 56.4303332,27.2266449 56.2086825,27.2982334 C55.9870318,27.3698447 55.797515,27.4916275 55.6402005,27.6634216 C55.2970665,28.0214326 55.0968003,28.4296378 55.0396303,28.887923 C54.9824375,29.3462311 55.0467737,29.7830077 55.2327303,30.1983901 C55.3757123,30.4848126 55.3542136,30.7712123 55.1683941,31.0576348 C55.0825592,31.1722633 54.9466521,31.290366 54.7607868,31.4121487 C54.5748531,31.5338629 54.371118,31.6447656 54.1494901,31.7450855 C53.9278394,31.8453596 53.6954622,31.9241481 53.4523585,31.9813823 C53.2093233,32.0386622 52.9947475,32.0673479 52.8089051,32.0673479 C52.6802327,32.0673479 52.5586352,32.0172451 52.4442952,31.9169481 C52.3298411,31.8166739 52.2511953,31.7093141 52.2083349,31.5946856 L52.1868591,31.5946856 C52.0295446,31.1507319 51.7614733,30.7676237 51.3825309,30.4453612 C51.0035886,30.123213 50.5638703,29.9620703 50.0633305,29.9620703 C49.5772144,29.9620703 49.137519,30.123213 48.7442214,30.4453612 C48.3509694,30.7676237 48.0757318,31.1435547 47.9184174,31.5731771 C47.8469378,31.7450626 47.7396271,31.8703424 47.596645,31.9491081 C47.453663,32.0278737 47.2963485,32.0673251 47.1247473,32.0673251 C46.9245724,32.0673251 46.6993614,32.0314623 46.4490915,31.9598509 C46.1989129,31.8882396 45.948643,31.7987082 45.6983502,31.6913712 C45.4481716,31.583897 45.2229606,31.45864 45.0226945,31.3154402 C44.8225425,31.1722404 44.6723942,31.0290177 44.5722497,30.8858178 C44.5007701,30.7855437 44.4614929,30.6673267 44.4543266,30.5312811 C44.4471832,30.3952584 44.5007701,30.2055672 44.6152242,29.9620475 C44.7725387,29.6326307 44.8332918,29.2566997 44.7974835,28.8342545 C44.7617894,28.411695 44.5794159,28.0214097 44.2504774,27.6633987 C44.0503254,27.4486104 43.8071988,27.3089534 43.5212348,27.244542 C43.2352479,27.1801078 42.9635934,27.1550107 42.7061573,27.169365 C42.4058607,27.1837192 42.0984208,27.2409763 41.7837919,27.3412505 C41.5836399,27.3985304 41.383465,27.3841762 41.1832217,27.2982105 C41.0259072,27.2409535 40.8793421,27.1085193 40.7435262,26.900771 C40.6076876,26.6931369 40.4860901,26.4639943 40.3788935,26.2133203 C40.2715828,25.9627835 40.1893767,25.7049552 40.1321839,25.4400412 C40.0749911,25.1750358 40.0607043,24.9566361 40.0893235,24.7847734 C40.1321839,24.4697795 40.2751659,24.2692312 40.5182924,24.1832655 C40.9472614,24.0114714 41.3333699,23.728546 41.6765953,23.3348094 C42.0197522,22.9409355 42.1913991,22.5005703 42.1913991,22.0135994 C42.1913991,21.5123886 42.019775,21.0755891 41.6765953,20.7032467 C41.3333471,20.3307899 40.9472614,20.0587217 40.5182924,19.8868362 C40.38962,19.8439333 40.2823321,19.7400706 40.1965201,19.5753394 C40.1107081,19.4107453 40.0678477,19.2424255 40.0678477,19.07054 C40.0678477,18.8844373 40.0964897,18.676689 40.1536597,18.4475464 C40.2108525,18.2183809 40.2859152,17.9963926 40.3788935,17.7816043 C40.4718718,17.566816 40.5790455,17.3699247 40.7006659,17.1908621 C40.8221721,17.0117994 40.9544048,16.8793653 41.0974096,16.7933997 C41.2118637,16.7218112 41.3226434,16.693217 41.4299313,16.7074569 C41.5371051,16.7217884 41.6551423,16.7504969 41.7837919,16.7933997 C42.2128521,16.9652852 42.6597138,17.0189766 43.124354,16.9545424 C43.5891084,16.8901082 44.0002988,16.6860627 44.3577653,16.3422688 C44.5293894,16.1704976 44.6544787,15.9591607 44.7331245,15.7086009 C44.8117703,15.4579498 44.8617969,15.2108872 44.8832499,14.9675046 C44.9047257,14.7239849 44.9047257,14.5020423 44.8832499,14.3014483 C44.8617741,14.1009914 44.8439726,13.9577915 44.829663,13.8718259 C44.8010438,13.7858831 44.775962,13.6857233 44.7546003,13.5710948 C44.7331245,13.4565578 44.7438738,13.3562608 44.7867342,13.2703409 C44.8725462,13.0698611 45.0262548,12.8944099 45.2479055,12.7440329 C45.4695561,12.5936331 45.7090767,12.4683761 45.9665129,12.3681019 C46.2238349,12.2678049 46.4741276,12.1926049 46.7172541,12.142525 C46.9602665,12.0924451 47.1533665,12.0673479 47.2963485,12.0673479 C47.482305,12.0673479 47.6288702,12.1281936 47.7360439,12.2499992 C47.8433546,12.3716676 47.9184173,12.4969703 47.9612777,12.6259302 C48.1185922,13.0125126 48.3760283,13.3526951 48.733472,13.6462947 C49.0909385,13.9398715 49.5128554,14.0866599 49.9989715,14.0866599 C50.49942,14.0866599 50.9428127,13.9470487 51.3288071,13.6678033 C51.7149157,13.3884664 51.9866614,13.034044 52.1439759,12.6044216 C52.2011687,12.4897932 52.290541,12.3716905 52.4120473,12.2499992 C52.5335763,12.1281936 52.6587569,12.0673479 52.7874065,12.0673479 C52.9875814,12.0673479 53.2057402,12.0960336 53.4416092,12.1532907 C53.6775467,12.2105706 53.9099239,12.2893362 54.1387408,12.3896104 C54.3675349,12.4897932 54.5784362,12.618753 54.7715133,12.7763071 C54.9645448,12.9338612 55.1182533,13.1056553 55.2327074,13.2918494 C55.3041871,13.4063635 55.3255716,13.5317577 55.2970437,13.6677804 C55.2684016,13.8038259 55.2398508,13.9005116 55.2112088,13.9577915 C55.0252751,14.3730596 54.9681051,14.8099505 55.0396075,15.2682357 C55.1110871,15.7264295 55.3185195,16.1274804 55.6616764,16.4712286 C56.0048105,16.8149082 56.4267045,17.0047137 56.9271758,17.0404623 C57.4277157,17.0763251 57.8923788,16.9939709 58.321439,16.7933768 C58.435779,16.7217883 58.5751779,16.6931941 58.7396358,16.7074341 C58.9041165,16.7217655 59.0435154,16.7861997 59.1579695,16.9008281 C59.3724311,17.1013079 59.5618795,17.4056276 59.7263374,17.8138557 C59.8907952,18.2219466 60.0015749,18.6337404 60.0588362,19.0490085 C60.087387,19.2924826 60.0481097,19.4823338 59.940799,19.6183336 C59.8336252,19.7543792 59.7227543,19.8439105 59.6083914,19.8868133 C59.1649988,20.0443674 58.7860792,20.3201385 58.4715644,20.7138752 C58.1569355,21.107749 57.9996667,21.5552685 57.9996667,22.0566165 C57.9996667,22.5434731 58.1318994,22.9695069 58.3965017,23.3347865 C58.66099,23.6999518 59.0077984,23.9612544 59.4367674,24.1188085 C59.5368205,24.1760884 59.6226098,24.2334369 59.6940894,24.290694 C59.8514723,24.419631 59.9587602,24.5843394 60.0159302,24.7848191 L60.0159302,24.7848191 L60.0159302,24.7848191 Z M50.0419688,26.7182569 C50.6853994,26.7182569 51.2931586,26.5964742 51.8651096,26.3530688 C52.4371518,26.1095948 52.9340173,25.772978 53.3559113,25.3433557 C53.7776912,24.9137561 54.1102356,24.4160196 54.3532481,23.8503745 C54.5963518,23.284638 54.7178808,22.6795187 54.7178808,22.035108 C54.7178808,21.390583 54.5963517,20.7855094 54.3532481,20.2198644 C54.1102357,19.654105 53.777714,19.1600484 53.3559113,18.7376032 C52.9340173,18.3150666 52.437129,17.9821527 51.8651096,17.7386558 C51.2931586,17.4951818 50.6854222,17.3734905 50.0419688,17.3734905 C49.3984241,17.3734905 48.794248,17.4951589 48.2294632,17.7386558 C47.6645871,17.9821755 47.171282,18.3150666 46.749388,18.7376032 C46.3275624,19.1600256 45.9950636,19.6540822 45.7520512,20.2198644 C45.5089475,20.7855094 45.3873043,21.390583 45.3873043,22.035108 C45.3873043,22.6795187 45.5089247,23.284638 45.7520512,23.8503745 C45.9950636,24.4160196 46.3275624,24.9137561 46.749388,25.3433557 C47.171282,25.772978 47.6645871,26.1095719 48.2294632,26.3530688 C48.794248,26.5964742 49.3984469,26.7182569 50.0419688,26.7182569 L50.0419688,26.7182569 L50.0419688,26.7182569 Z" id="Shape"></path>
                </g>
            </g>
        </g>
    </g>
</svg>