<?xml version="1.0" encoding="UTF-8" standalone="no"?>
<svg width="20px" height="18px" viewBox="0 0 20 18" version="1.1" xmlns="http://www.w3.org/2000/svg" xmlns:xlink="http://www.w3.org/1999/xlink">
    <!-- Generator: Sketch 3.8.3 (29802) - http://www.bohemiancoding.com/sketch -->
    <title>Shape</title>
    <desc>Created with Sketch.</desc>
    <defs></defs>
    <g id="学员管理" stroke="none" stroke-width="1" fill="none" fill-rule="evenodd">
        <g id="nav_btn_index" transform="translate(-36.000000, -144.000000)" fill="#FFFFFF">
            <g id="学员档案">
                <g transform="translate(0.000000, 132.000000)">
                    <path d="M49.0433396,23.6347345 C49.4429927,23.3994389 49.8163821,23.1160761 50.1554374,22.7872549 C51.2635455,21.7125941 51.8738086,20.2837519 51.8738086,18.7639488 C51.8738086,18.7434085 51.8734438,18.722824 51.8732158,18.7022617 C52.166857,18.477579 52.4072188,18.1677724 52.4072188,17.7551319 L52.4072188,15.7531962 L56.0069001,14.7599448 L46.0069115,12.0006503 L36.0069001,14.7599448 L37.4449898,15.1567546 C37.444967,15.1590098 37.4448074,19.6315044 37.4448074,19.6315044 C37.4448074,20.0100511 37.7612241,20.316917 38.1515526,20.316917 C38.5418811,20.316917 38.8582978,20.0100511 38.8582978,19.6315044 L38.8582978,15.5467323 L39.6065586,15.7531962 L39.6065586,17.7551319 C39.6065586,18.1677503 39.8468976,18.4775569 40.1405388,18.7022395 C40.1403108,18.7228019 40.139946,18.7433864 40.139946,18.7639267 C40.139946,20.2837298 40.7502091,21.712572 41.85834,22.7872327 C42.1947051,23.113445 42.56488,23.3948621 42.9609309,23.6290301 C42.1948875,23.9083247 41.4646829,24.294809 40.7873018,24.7833977 C39.3000364,25.8561791 38.1686285,27.3420432 37.5153679,29.0803382 C37.3817019,29.436001 37.5706537,29.8294058 37.937386,29.9590151 C38.3040728,30.0886687 38.7097445,29.9053981 38.8434106,29.5497353 C39.4018761,28.0636943 40.3657397,26.7958798 41.6308592,25.8833524 C42.9161324,24.9562543 44.4249422,24.4662285 45.9941673,24.4662285 C47.5633924,24.4662285 49.0722022,24.9562543 50.3574754,25.8833524 C51.6225721,26.7958798 52.5864814,28.0636943 53.1449469,29.5497353 C53.2494995,29.8279465 53.5204337,30.0006484 53.8090366,30.0006484 C53.8893547,30.0006484 53.9711092,29.9872497 54.0509714,29.9590151 C54.4177038,29.8293837 54.6066327,29.436001 54.4729895,29.0803382 C53.8197061,27.3420653 52.6882754,25.8561791 51.2010327,24.7834198 C50.5283481,24.2981918 49.8035923,23.9135869 49.0433396,23.6347345 Z M46.0068887,18.4322754 C45.6968783,18.4322754 45.3999086,18.4265268 45.1162302,18.4158255 C43.5486693,18.2825238 42.1174419,17.8252872 41.2197615,17.3929687 C41.1559949,17.3622578 41.0886489,17.3414964 41.020049,17.3305519 L41.020049,16.3879989 L45.8159763,17.6927151 C45.9408422,17.7266762 46.0729124,17.7266762 46.1977555,17.6927151 L50.9936828,16.3879989 L50.9936828,17.3305519 C50.9251058,17.3414743 50.8577598,17.3622357 50.7939703,17.3929466 C49.8962899,17.8252651 48.4650625,18.2825017 46.8975017,18.4158034 C46.6138688,18.4265268 46.3168991,18.4322754 46.0068887,18.4322754 L46.0068887,18.4322754 Z M41.5912131,19.3266505 C42.4933163,19.5652847 43.6768866,19.7252732 44.9751547,19.7811233 C45.3076669,19.8092916 45.6522394,19.8252329 46.0068659,19.8252329 C46.361424,19.8252329 46.7059509,19.8092916 47.0384175,19.7811233 C48.3367541,19.7252954 49.5203699,19.5652847 50.4225187,19.3266505 C50.1372673,21.443249 48.2658744,23.0829552 46.0068659,23.0829552 C43.7478803,23.0829552 41.8764646,21.4432269 41.5912131,19.3266505 L41.5912131,19.3266505 Z" id="Shape"></path>
                </g>
            </g>
        </g>
    </g>
</svg>