<?xml version="1.0" encoding="UTF-8" standalone="no"?>
<svg width="20px" height="15px" viewBox="0 0 20 15" version="1.1" xmlns="http://www.w3.org/2000/svg" xmlns:xlink="http://www.w3.org/1999/xlink">
    <!-- Generator: Sketch 3.8.3 (29802) - http://www.bohemiancoding.com/sketch -->
    <title>Shape</title>
    <desc>Created with Sketch.</desc>
    <defs></defs>
    <g id="学员管理" stroke="none" stroke-width="1" fill="none" fill-rule="evenodd">
        <g id="nav_btn_index" transform="translate(-38.000000, -453.000000)" fill="#FFFFFF">
            <g id="家校通">
                <g transform="translate(0.000000, 440.000000)">
                    <path d="M57.5843285,16.2519599 L48.7194192,13.2110579 C48.1670923,13.0114693 48.2828419,13.0102141 47.7342895,13.2079198 L38.8159088,16.2249715 C38.2679855,16.4226772 38.2711308,16.7452826 38.8240868,16.9448712 L40.9434368,17.6622605 C40.0048585,18.5698238 39.9438383,19.5131624 39.9312569,20.6065063 C39.5682812,20.7458417 39.31099,21.0966909 39.31099,21.5077932 C39.31099,21.8850031 39.5280205,22.2120021 39.8444447,22.3707943 C39.694096,23.4823396 39.2638095,24.7520496 38,26.2558681 C38.6252995,26.7385211 38.9480144,26.8998238 39.4317722,27.0604989 C41.1982117,26.3035685 40.9836975,24.2913639 40.8459303,22.2898291 C41.0887528,22.1140907 41.2466504,21.8291434 41.2466504,21.5077932 C41.2466504,21.1625928 41.064848,20.8600717 40.792459,20.6893544 C40.8239127,19.6173502 41.0579282,18.6589483 41.8606265,18.0382151 C41.8675463,18.0218966 41.8857895,18.0068333 41.9203885,17.9930253 L48.0148564,15.5358259 C48.2406939,15.4454461 48.4973561,15.554655 48.5879427,15.7806044 L48.5961207,15.8006888 C48.6867073,16.0260105 48.5772485,16.2820864 48.3507819,16.3724662 L43.2005539,18.4267225 L47.8091492,19.9864008 C48.3614761,20.1859894 48.2457265,20.1872447 48.7936499,19.989539 L57.5912483,16.9724873 C58.1391717,16.7747816 58.1360263,16.4521761 57.5830704,16.2525875 L57.5843285,16.2519599 Z M47.7959387,21.1525506 L42.2173114,19.2658734 L42.2173114,20.6849609 C42.5092017,20.9517067 42.6696155,21.3339377 42.6696155,21.7588481 C42.6696155,22.1410791 42.5356228,22.48879 42.3097853,22.7486318 C42.384016,22.971443 42.5123471,23.1892331 42.6966657,23.2576455 C45.9433161,25.0482943 50.4311292,25.0282099 54.0407553,23.076886 C54.3087407,22.8547025 54.515706,22.5791698 54.515706,22.312424 L54.515706,19.1867911 L48.7854719,21.1556888 C48.2375486,21.3533945 48.3488946,21.3521392 47.7965678,21.1525506 L47.7959387,21.1525506 Z" id="Shape"></path>
                </g>
            </g>
        </g>
    </g>
</svg>