<?xml version="1.0" encoding="UTF-8" standalone="no"?>
<svg width="49px" height="49px" viewBox="0 0 49 49" version="1.1" xmlns="http://www.w3.org/2000/svg" xmlns:xlink="http://www.w3.org/1999/xlink">
    <!-- Generator: Sketch 3.8.3 (29802) - http://www.bohemiancoding.com/sketch -->
    <title>Shape</title>
    <desc>Created with Sketch.</desc>
    <defs></defs>
    <g id="线索管理_线索详情" stroke="none" stroke-width="1" fill="none" fill-rule="evenodd">
        <g id="交互状态" transform="translate(-120.000000, -1623.000000)" fill="#46AEF7">
            <path d="M144.02274,1623.02274 C130.767881,1623.02274 120.02274,1633.76788 120.02274,1647.02274 C120.02274,1660.27754 130.767881,1671.02274 144.02274,1671.02274 C157.277539,1671.02274 168.02274,1660.27754 168.02274,1647.02274 C168.02274,1633.76788 157.277539,1623.02274 144.02274,1623.02274 L144.02274,1623.02274 Z M157.785981,1652.36642 L157.785981,1652.57236 L157.785981,1652.76502 L157.752589,1652.9966 L157.704063,1653.39526 L157.636259,1653.75482 L157.532601,1654.07991 L157.494164,1654.21299 L157.422576,1654.37052 L157.362339,1654.48169 L157.281683,1654.62 L157.209975,1654.7057 L157.119229,1654.81699 L157.038633,1654.90659 L156.952871,1654.98334 L156.849213,1655.03073 L156.755704,1655.07811 L156.680273,1655.1037 L156.61379,1655.1037 L156.563823,1655.1037 L156.489652,1655.07811 L156.346297,1655.00508 L156.280955,1654.9577 L156.21315,1654.90653 L156.13886,1654.83746 L156.063429,1654.76071 L155.939291,1654.61994 L155.79083,1654.41773 L155.675641,1654.21293 L155.559251,1654.04658 L155.446524,1653.85337 L155.286653,1653.51039 L155.107443,1653.15467 L155.086903,1653.14182 L155.056274,1653.14182 L154.983305,1653.19821 L154.941085,1653.29154 L154.870698,1653.40673 L154.749143,1653.75476 L154.564829,1654.24638 L154.328084,1654.83752 L154.151457,1655.13312 L153.96456,1655.44158 L153.74313,1655.78847 L153.508968,1656.12755 L153.388734,1656.28105 L153.244057,1656.44741 L152.908699,1656.78535 L152.938187,1656.81616 L152.984311,1656.86342 L153.150669,1656.96594 L153.846908,1657.30875 L154.151457,1657.48423 L154.440691,1657.65563 L154.727283,1657.87058 L154.983245,1658.09327 L155.107383,1658.19056 L155.19957,1658.30581 L155.295421,1658.43878 L155.374936,1658.58478 L155.417096,1658.70501 L155.470727,1658.85101 L155.491266,1658.9752 L155.516971,1659.11976 L155.491266,1659.21832 L155.491266,1659.31687 L155.470727,1659.41921 L155.417096,1659.51386 L155.396617,1659.58815 L155.350493,1659.67649 L155.223893,1659.8518 L155.107383,1659.99389 L155.016457,1660.09995 L154.941025,1660.17814 L154.749083,1660.32264 L154.531557,1660.4481 L154.298536,1660.56833 L154.051642,1660.68352 L153.773819,1660.79355 L153.625358,1660.84225 L153.492272,1660.88075 L153.172229,1660.95732 L152.838193,1661.02915 L152.504156,1661.10332 L152.142073,1661.16344 L151.765817,1661.18007 L151.381933,1661.2262 L151.001833,1661.2262 L150.601193,1661.2262 L150.189083,1661.2262 L149.759075,1661.20193 L149.357294,1661.1635 L148.927287,1661.10338 L148.498601,1661.056 L148.046793,1660.99077 L147.610419,1660.88081 L147.182994,1660.79361 L146.759353,1660.67073 L146.324301,1660.51218 L145.898017,1660.37904 L145.674185,1660.30216 L145.473294,1660.22931 L145.346514,1660.17814 L145.222377,1660.15256 L145.059923,1660.15256 L144.867981,1660.15256 L144.458333,1660.12307 L144.251076,1660.09995 L143.983523,1660.07058 L143.81212,1660.22925 L143.577959,1660.37898 L143.261879,1660.53765 L142.911087,1660.73463 L142.698786,1660.84213 L142.476034,1660.92657 L141.984649,1661.13269 L141.718417,1661.20175 L141.438131,1661.27851 L141.049203,1661.35544 L140.807233,1661.37706 L140.548808,1661.3976 L140.281315,1661.42823 L139.969079,1661.44108 L139.669575,1661.44108 L139.357219,1661.44108 L138.69305,1661.44108 L137.972547,1661.42823 L137.273845,1661.35538 L136.919269,1661.30409 L136.576284,1661.2516 L136.243569,1661.20169 L135.909533,1661.13263 L135.60108,1661.02897 L135.291367,1660.95714 L135.012403,1660.84207 L134.748753,1660.73457 L134.504381,1660.61434 L134.290759,1660.48125 L134.078278,1660.32252 L134.00663,1660.24577 L133.910659,1660.15244 L133.838951,1660.07046 L133.773789,1659.97695 L133.714813,1659.88224 L133.66887,1659.78753 L133.602207,1659.58797 L133.577944,1659.48431 L133.548456,1659.3678 L133.548456,1659.26156 L133.577944,1659.14258 L133.577944,1659.02091 L133.602207,1658.90194 L133.602207,1658.82891 L133.602207,1658.66123 L133.613737,1658.53331 L133.66881,1658.38749 L133.714753,1658.24149 L133.799313,1658.06618 L133.860752,1657.99838 L133.910659,1657.92037 L134.043745,1657.75389 L134.149986,1657.66831 L134.248539,1657.60801 L134.340606,1657.53126 L134.487746,1657.48399 L134.602995,1657.41228 L134.748813,1657.33409 L134.915171,1657.28292 L135.082849,1657.23043 L135.274791,1657.18821 L135.457905,1657.16263 L135.675431,1657.13314 L135.909593,1657.11536 L135.972352,1657.09482 L135.985204,1657.09482 L136.014572,1657.06792 L136.014572,1657.03843 L135.972412,1656.97963 L135.846953,1656.9182 L135.534718,1656.64055 L135.324879,1656.46897 L135.08291,1656.25012 L134.837217,1656.00701 L134.582515,1655.69466 L134.290819,1655.34404 L134.180735,1655.15469 L134.036178,1654.95752 L133.910719,1654.72972 L133.799433,1654.48139 L133.647129,1654.24608 L133.548576,1653.97721 L133.430924,1653.70719 L133.314414,1653.40643 L133.227391,1653.11984 L133.146735,1652.76472 L133.122472,1652.75187 L133.098209,1652.75187 L133.085357,1652.72628 L133.054728,1652.72628 L133.006022,1652.75187 L132.980437,1652.76472 L132.947226,1652.82484 L132.934374,1652.89787 L132.90879,1652.96177 L132.863987,1653.06873 L132.720751,1653.3298 L132.647722,1653.48847 L132.529891,1653.62666 L132.404432,1653.79307 L132.266241,1653.97733 L132.121744,1654.13978 L131.950221,1654.29731 L131.791491,1654.44824 L131.616185,1654.56342 L131.424243,1654.68756 L131.24125,1654.76059 L131.023723,1654.8168 L130.809981,1654.83728 L130.789622,1654.83728 L130.760134,1654.83728 L130.711428,1654.8168 L130.673111,1654.72978 L130.610412,1654.68756 L130.528434,1654.48145 L130.477266,1654.37028 L130.422193,1654.21275 L130.377391,1654.04639 L130.353068,1653.88262 L130.285264,1653.51015 L130.25968,1653.2913 L130.25968,1653.06873 L130.25968,1652.57212 L130.285264,1652.03719 L130.327484,1651.76273 L130.377391,1651.48058 L130.422193,1651.17652 L130.50285,1650.89377 L130.593776,1650.56796 L130.685843,1650.25128 L130.809981,1649.92565 L130.927813,1649.61329 L131.089125,1649.29601 L131.24131,1648.95417 L131.424303,1648.63299 L131.641949,1648.28556 L131.861938,1647.97332 L132.092316,1647.62643 L132.284258,1647.3865 L132.529951,1647.10808 L132.788556,1646.82972 L132.90879,1646.69735 L133.054788,1646.54691 L133.267089,1646.35827 L133.484795,1646.16561 L133.839191,1645.84058 L134.108066,1645.63969 L134.202716,1645.56666 L134.150286,1645.39976 L134.108066,1645.18091 L134.078578,1645.06122 L134.078578,1644.9115 L134.078578,1644.73097 L134.078578,1644.56912 L134.128485,1644.37591 L134.180975,1644.17052 L134.248899,1643.95617 L134.340967,1643.71697 L134.462522,1643.46863 L134.634104,1643.21976 L134.634104,1643.04439 L134.65074,1642.88122 L134.675003,1642.65919 L134.749173,1642.41085 L134.817098,1642.14071 L134.870849,1642.0167 L134.933428,1641.90151 L135.012763,1641.77287 L135.099786,1641.67816 L135.099786,1641.50285 L135.099786,1641.30568 L135.099786,1641.06185 L135.151074,1640.74457 L135.200981,1640.376 L135.291727,1639.935 L135.415925,1639.47683 L135.509434,1639.22417 L135.601501,1638.95031 L135.701376,1638.69303 L135.821609,1638.41923 L135.944486,1638.1196 L136.085259,1637.83686 L136.24393,1637.53735 L136.443679,1637.23731 L136.535746,1637.06573 L136.635621,1636.92435 L136.849243,1636.60749 L137.069352,1636.29081 L137.320089,1635.96578 L137.587643,1635.64832 L137.879459,1635.33615 L138.184008,1635.01424 L138.551256,1634.66807 L138.785538,1634.45751 L139.069547,1634.23104 L139.35746,1634.03009 L139.669816,1633.83755 L139.969319,1633.66596 L140.307079,1633.52459 L140.665559,1633.34856 L141.022537,1633.22893 L141.379516,1633.10473 L141.763399,1632.98072 L142.147463,1632.88661 L142.553027,1632.80913 L142.962676,1632.74061 L143.365778,1632.68499 L143.770201,1632.62872 L144.201349,1632.60374 L144.610937,1632.60374 L145.034579,1632.60374 L145.473535,1632.60374 L145.898317,1632.65941 L146.324601,1632.7113 L146.759653,1632.75856 L147.162755,1632.85712 L147.589039,1632.95063 L147.989559,1633.05747 L148.427193,1633.1771 L148.827713,1633.32298 L149.211777,1633.49006 L149.621245,1633.66596 L149.99618,1633.85863 L150.359704,1634.07225 L150.715421,1634.30845 L151.022732,1634.52652 L151.164647,1634.65072 L151.314369,1634.74032 L151.599639,1634.98926 L151.840287,1635.22919 L152.078353,1635.47752 L152.312635,1635.75144 L152.504456,1636.01695 L152.732372,1636.29087 L152.893505,1636.58647 L153.054818,1636.84766 L153.22622,1637.15221 L153.368315,1637.41772 L153.608963,1637.97895 L153.726614,1638.26945 L153.818802,1638.53946 L153.910869,1638.83056 L153.992847,1639.10448 L154.051823,1639.3399 L154.125993,1639.61832 L154.256496,1640.11475 L154.339735,1640.54807 L154.393486,1640.96708 L154.440751,1641.30556 L154.51372,1641.81941 L154.531677,1641.90139 L154.590473,1641.99532 L154.749203,1642.26023 L154.850219,1642.44004 L154.941145,1642.6288 L155.056334,1642.82969 L155.158671,1643.07034 L155.224013,1643.31795 L155.295541,1643.58809 L155.350613,1643.86573 L155.375056,1644.00266 L155.396737,1644.17034 L155.396737,1644.31628 L155.375056,1644.46137 L155.375056,1644.6419 L155.332656,1644.81667 L155.257225,1645.15515 L155.170202,1645.32655 L155.107503,1645.51922 L155.107503,1645.56648 L155.136991,1645.6266 L155.224013,1645.76737 L155.598888,1646.33755 L155.897071,1646.76564 L156.037844,1647.05229 L156.229786,1647.36446 L156.397465,1647.70763 L156.589407,1648.07548 L156.781349,1648.48699 L156.997734,1648.95399 L157.119289,1649.24004 L157.230574,1649.5184 L157.327867,1649.81394 L157.422636,1650.07964 L157.494224,1650.35788 L157.568515,1650.61961 L157.661843,1651.12895 L157.734872,1651.65103 L157.786041,1652.1137 L157.786041,1652.36642 L157.785981,1652.36642 Z" id="Shape"></path>
        </g>
    </g>
</svg>