<?xml version="1.0" encoding="utf-8"?>
<!-- Generator: Adobe Illustrator 18.0.0, SVG Export Plug-In . SVG Version: 6.00 Build 0)  -->
<!DOCTYPE svg PUBLIC "-//W3C//DTD SVG 1.1//EN" "http://www.w3.org/Graphics/SVG/1.1/DTD/svg11.dtd">
<svg version="1.1" id="图层_1" xmlns="http://www.w3.org/2000/svg" xmlns:xlink="http://www.w3.org/1999/xlink" x="0px" y="0px"
	 width="32px" height="32px" viewBox="0 0 32 32" enable-background="new 0 0 32 32" xml:space="preserve">
<path fill="#555555" d="M11,17c-2.8,0-5-2.2-5-5c0-2.8,2.2-5,5-5c2.8,0,5,2.2,5,5C16,14.8,13.8,17,11,17z M11,9c-1.7,0-3,1.3-3,3
	c0,1.7,1.3,3,3,3c1.7,0,3-1.3,3-3C14,10.3,12.7,9,11,9z"/>
<path fill="#555555" d="M16,25.2l-0.9-5.4L12.7,19l0.6-1.9l3.6,1.2l1.1,6.6L16,25.2z"/>
<path fill="#555555" d="M6,25.2l-2-0.3l1.1-6.6l3.6-1.2L9.3,19l-2.4,0.8L6,25.2z"/>
<path fill="#555555" d="M20,9h4v2h-4V9z"/>
<path fill="#555555" d="M20,13h8v2h-8V13z"/>
<path fill="#555555" d="M20,17h8v2h-8V17z"/>
<path fill="#555555" d="M20,21h8v2h-8V21z"/>
<path fill="#555555" d="M11,27h10v2H11V27z"/>
<path fill="#555555" d="M32,29h-9v-2h7V5H2v22h7v2H0V3h32V29z"/>
</svg>
