<?xml version="1.0" encoding="utf-8"?>
<!-- Generator: Adobe Illustrator 18.0.0, SVG Export Plug-In . SVG Version: 6.00 Build 0)  -->
<!DOCTYPE svg PUBLIC "-//W3C//DTD SVG 1.1//EN" "http://www.w3.org/Graphics/SVG/1.1/DTD/svg11.dtd">
<svg version="1.1" id="图层_1" xmlns="http://www.w3.org/2000/svg" xmlns:xlink="http://www.w3.org/1999/xlink" x="0px" y="0px"
	 width="32px" height="32px" viewBox="0 0 32 32" enable-background="new 0 0 32 32" xml:space="preserve">
<path fill="#919EB3" d="M15,20h-5v-2h3v-8H8V8h7V20z"/>
<path fill="#919EB3" d="M32,26.4l-18.3-6.5l0.7-1.9L30,23.6V4.4L14.3,9.9l-0.7-1.9L32,1.6V26.4z"/>
<path fill="#919EB3" d="M26.7,7.7l0.7,1.9l-9,3.3L17.7,11L26.7,7.7z"/>
<path fill="#919EB3" d="M6,20H0V8h6V20z M2,18h2v-8H2V18z"/>
<path fill="#919EB3" d="M8,30c-2.2,0-4-1.8-4-4v-4h2v4c0,1.1,0.9,2,2,2s2-0.9,2-2v-4h4v2h-2v2C12,28.2,10.2,30,8,30z"/>
</svg>
